<svg width="191" height="60" viewBox="0 0 191 60" fill="none" xmlns="http://www.w3.org/2000/svg">
<g clip-path="url(#clip0_211_4347)">
<g clip-path="url(#clip1_211_4347)">
<path d="M175.952 2.625e-06H14.552C14.002 2.625e-06 13.4585 2.62493e-06 12.9099 0.00300263C12.4507 0.00600263 11.9951 0.0147176 11.5315 0.0220526C10.5243 0.0339053 9.51941 0.122517 8.52565 0.287118C7.53329 0.455302 6.57201 0.772376 5.67433 1.22762C4.77775 1.68671 3.95852 2.28325 3.24636 2.99561C2.53045 3.70596 1.93369 4.52703 1.47903 5.42724C1.0231 6.32567 0.706961 7.28841 0.541525 8.28222C0.374516 9.27478 0.284648 10.2788 0.272725 11.2852C0.258805 11.7451 0.257335 12.2066 0.25 12.6665V47.3379C0.257335 47.8037 0.258805 48.2549 0.272725 48.7208C0.284651 49.7271 0.37452 50.7311 0.541525 51.7236C0.706504 52.718 1.02266 53.6813 1.47903 54.5801C1.93349 55.4774 2.53033 56.2951 3.24636 57.0015C3.95582 57.717 4.77558 58.314 5.67433 58.7696C6.572 59.226 7.53318 59.545 8.52565 59.7158C9.51958 59.879 10.5243 59.9677 11.5315 59.981C11.9951 59.9912 12.4507 59.997 12.9099 59.997C13.4585 60 14.002 60 14.552 60H175.952C176.491 60 177.039 60 177.578 59.997C178.035 59.997 178.504 59.9912 178.961 59.981C179.966 59.9684 180.969 59.8797 181.961 59.7158C182.957 59.5438 183.921 59.2249 184.823 58.7696C185.721 58.3137 186.54 57.7168 187.249 57.0015C187.963 56.2923 188.561 55.4752 189.022 54.5801C189.474 53.6806 189.788 52.7174 189.95 51.7236C190.117 50.731 190.21 49.7272 190.229 48.7208C190.234 48.2549 190.234 47.8037 190.234 47.3379C190.246 46.793 190.246 46.251 190.246 45.6972V14.3042C190.246 13.7549 190.246 13.21 190.234 12.6665C190.234 12.2065 190.234 11.7451 190.229 11.2852C190.21 10.2786 190.117 9.27485 189.95 8.28216C189.787 7.28892 189.474 6.32626 189.022 5.42718C188.096 3.62279 186.627 2.15404 184.823 1.22748C183.921 0.773356 182.957 0.456361 181.961 0.28698C180.969 0.121655 179.966 0.0330153 178.961 0.0218437C178.504 0.0145237 178.035 0.00573143 177.578 0.00280643C177.039 -0.000193573 176.491 2.625e-06 175.952 2.625e-06Z" fill="#A6A6A6"/>
<path d="M12.9173 58.6875C12.4603 58.6875 12.0143 58.6816 11.5609 58.6714C10.6215 58.6592 9.68441 58.5774 8.75716 58.4268C7.89254 58.2779 7.05496 58.0009 6.27205 57.6049C5.49631 57.2123 4.78877 56.6974 4.17655 56.08C3.55546 55.47 3.03837 54.7624 2.64578 53.9853C2.24886 53.2032 1.97417 52.3648 1.83128 51.4995C1.67697 50.5697 1.59348 49.6295 1.58153 48.687C1.57202 48.3707 1.55957 47.3174 1.55957 47.3174V12.6665C1.55957 12.6665 1.57283 11.6294 1.58161 11.3247C1.59304 10.3837 1.67605 9.44498 1.8299 8.51659C1.97306 7.64888 2.24796 6.80812 2.64509 6.02344C3.03624 5.24692 3.55045 4.53879 4.1678 3.92652C4.78445 3.30843 5.49425 2.79091 6.27131 2.39281C7.05243 1.99814 7.88842 1.7231 8.75129 1.57691C9.68159 1.42475 10.622 1.34249 11.5646 1.33082L12.918 1.3125H177.571L178.941 1.33155C179.875 1.34265 180.806 1.42417 181.728 1.57543C182.6 1.72346 183.444 2.00042 184.234 2.39721C185.791 3.19948 187.058 4.46874 187.857 6.02711C188.248 6.80637 188.518 7.64026 188.66 8.50048C188.815 9.43649 188.903 10.3826 188.92 11.3313C188.925 11.7561 188.925 12.2124 188.925 12.6665C188.937 13.229 188.937 13.7644 188.937 14.3042V45.6972C188.937 46.2421 188.937 46.7739 188.925 47.31C188.925 47.7978 188.925 48.2446 188.919 48.7046C188.901 49.6363 188.816 50.5655 188.663 51.4848C188.523 52.3564 188.249 53.2013 187.853 53.9898C187.457 54.7584 186.943 55.4599 186.329 56.0683C185.716 56.689 185.008 57.2069 184.23 57.6021C183.442 58.0011 182.599 58.2791 181.728 58.4268C180.801 58.5782 179.864 58.66 178.924 58.6714C178.485 58.6816 178.025 58.6875 177.578 58.6875L175.952 58.6905L12.9173 58.6875Z" fill="black"/>
<path d="M37.4032 30.451C37.4194 29.199 37.7519 27.9714 38.37 26.8825C38.988 25.7936 39.8714 24.8787 40.9381 24.2229C40.2605 23.2552 39.3666 22.4587 38.3273 21.8969C37.2881 21.3351 36.1322 21.0233 34.9513 20.9864C32.4325 20.722 29.9906 22.4936 28.707 22.4936C27.3986 22.4936 25.4223 21.0126 23.2942 21.0564C21.9177 21.1009 20.5762 21.5012 19.4004 22.2182C18.2246 22.9353 17.2546 23.9448 16.5849 25.1482C13.6839 30.1708 15.8477 37.5524 18.6267 41.6123C20.017 43.6004 21.6419 45.821 23.7681 45.7423C25.8487 45.656 26.6258 44.4156 29.1372 44.4156C31.6253 44.4156 32.3544 45.7423 34.5237 45.6922C36.7563 45.656 38.1629 43.6954 39.5045 41.6885C40.5034 40.272 41.2721 38.7064 41.7821 37.0497C40.485 36.5011 39.3782 35.5829 38.5995 34.4094C37.8208 33.236 37.4048 31.8593 37.4032 30.451Z" fill="white"/>
<path d="M33.3059 18.3163C34.5232 16.855 35.1229 14.9767 34.9776 13.0804C33.1179 13.2757 31.4 14.1646 30.1663 15.5698C29.5631 16.2563 29.1011 17.055 28.8067 17.9201C28.5123 18.7853 28.3914 19.7 28.4507 20.6119C29.3809 20.6215 30.3012 20.4198 31.1422 20.0222C31.9832 19.6246 32.723 19.0413 33.3059 18.3163Z" fill="white"/>
<path d="M63.7034 40.7095H56.6033L54.8982 45.7442H51.8909L58.616 27.1172H61.7405L68.4656 45.7442H65.407L63.7034 40.7095ZM57.3386 38.3863H62.9666L60.1922 30.2154H60.1146L57.3386 38.3863Z" fill="white"/>
<path d="M82.9895 38.9546C82.9895 43.1748 80.7308 45.8862 77.3221 45.8862C76.4586 45.9314 75.5998 45.7325 74.8441 45.3123C74.0885 44.8921 73.4664 44.2676 73.0491 43.5102H72.9846V50.2368H70.197V32.1636H72.8953V34.4224H72.9466C73.383 33.6687 74.0156 33.0474 74.7771 32.6246C75.5385 32.2018 76.4003 31.9934 77.2708 32.0215C80.7175 32.0215 82.9895 34.7461 82.9895 38.9546ZM80.1243 38.9546C80.1243 36.2051 78.7034 34.3975 76.5354 34.3975C74.4056 34.3975 72.9729 36.2432 72.9729 38.9546C72.9729 41.6909 74.4056 43.5235 76.5354 43.5235C78.7034 43.5235 80.1243 41.729 80.1243 38.9546Z" fill="white"/>
<path d="M97.9368 38.9546C97.9368 43.1748 95.678 45.8862 92.2693 45.8862C91.4058 45.9314 90.5471 45.7325 89.7914 45.3123C89.0357 44.8921 88.4136 44.2676 87.9964 43.5102H87.9319V50.2368H85.1443V32.1636H87.8425V34.4224H87.8938C88.3302 33.6687 88.9628 33.0474 89.7243 32.6246C90.4857 32.2018 91.3475 31.9934 92.218 32.0215C95.6648 32.0215 97.9368 34.7461 97.9368 38.9546ZM95.0716 38.9546C95.0716 36.2051 93.6507 34.3975 91.4827 34.3975C89.3528 34.3975 87.9202 36.2432 87.9202 38.9546C87.9202 41.6909 89.3528 43.5234 91.4827 43.5234C93.6507 43.5234 95.0716 41.729 95.0716 38.9546H95.0716Z" fill="white"/>
<path d="M107.816 40.5542C108.022 42.4014 109.817 43.6142 112.269 43.6142C114.618 43.6142 116.309 42.4013 116.309 40.7358C116.309 39.29 115.289 38.4243 112.875 37.831L110.461 37.2495C107.041 36.4233 105.453 34.8237 105.453 32.228C105.453 29.0141 108.254 26.8066 112.231 26.8066C116.167 26.8066 118.865 29.0141 118.956 32.228H116.142C115.973 30.3691 114.437 29.247 112.191 29.247C109.946 29.247 108.409 30.3823 108.409 32.0346C108.409 33.3515 109.39 34.1264 111.791 34.7196L113.844 35.2235C117.665 36.1273 119.253 37.6625 119.253 40.3871C119.253 43.872 116.477 46.0546 112.062 46.0546C107.931 46.0546 105.142 43.9232 104.962 40.5541L107.816 40.5542Z" fill="white"/>
<path d="M125.269 28.9497V32.1636H127.852V34.3711H125.269V41.8579C125.269 43.021 125.786 43.563 126.922 43.563C127.228 43.5576 127.534 43.5361 127.839 43.4985V45.6928C127.328 45.7882 126.809 45.8314 126.29 45.8217C123.541 45.8217 122.468 44.789 122.468 42.1552V34.3711H120.494V32.1636H122.468V28.9497H125.269Z" fill="white"/>
<path d="M129.347 38.9546C129.347 34.6816 131.864 31.9966 135.788 31.9966C139.726 31.9966 142.231 34.6816 142.231 38.9546C142.231 43.2393 139.739 45.9126 135.788 45.9126C131.839 45.9126 129.347 43.2393 129.347 38.9546ZM139.39 38.9546C139.39 36.0234 138.047 34.2935 135.788 34.2935C133.53 34.2935 132.188 36.0366 132.188 38.9546C132.188 41.8975 133.53 43.6143 135.788 43.6143C138.047 43.6143 139.39 41.8975 139.39 38.9546H139.39Z" fill="white"/>
<path d="M144.529 32.1636H147.188V34.4751H147.252C147.432 33.7531 147.855 33.1151 148.45 32.6683C149.045 32.2215 149.775 31.9931 150.519 32.0215C150.84 32.0203 151.16 32.0552 151.474 32.1255V34.7329C151.068 34.609 150.645 34.5521 150.221 34.5644C149.816 34.548 149.413 34.6194 149.038 34.7737C148.663 34.9281 148.326 35.1617 148.05 35.4585C147.774 35.7553 147.566 36.1084 147.439 36.4934C147.313 36.8784 147.271 37.2862 147.317 37.6889V45.7441H144.529L144.529 32.1636Z" fill="white"/>
<path d="M164.326 41.7554C163.951 44.2207 161.551 45.9126 158.479 45.9126C154.528 45.9126 152.076 43.2656 152.076 39.019C152.076 34.7593 154.541 31.9966 158.362 31.9966C162.119 31.9966 164.482 34.5776 164.482 38.6953V39.6504H154.89V39.8188C154.846 40.3186 154.908 40.8221 155.073 41.2959C155.239 41.7697 155.503 42.2028 155.848 42.5667C156.194 42.9305 156.613 43.2166 157.078 43.4061C157.542 43.5955 158.042 43.684 158.543 43.6655C159.202 43.7272 159.863 43.5747 160.428 43.2305C160.993 42.8864 161.432 42.369 161.679 41.7554L164.326 41.7554ZM154.903 37.7021H161.693C161.718 37.2528 161.65 36.803 161.492 36.3812C161.335 35.9594 161.093 35.5746 160.78 35.251C160.467 34.9273 160.091 34.6718 159.675 34.5005C159.259 34.3292 158.812 34.2457 158.362 34.2554C157.908 34.2527 157.458 34.3399 157.038 34.512C156.618 34.6841 156.236 34.9377 155.914 35.2582C155.593 35.5786 155.338 35.9596 155.164 36.379C154.991 36.7985 154.902 37.2482 154.903 37.7022V37.7021Z" fill="white"/>
<path d="M56.9893 13.0965C57.5737 13.0546 58.1601 13.1429 58.7063 13.355C59.2525 13.5672 59.7447 13.8979 60.1476 14.3233C60.5505 14.7488 60.8539 15.2583 61.036 15.8152C61.2181 16.3721 61.2744 16.9625 61.2007 17.5438C61.2007 20.4032 59.6553 22.0468 56.9893 22.0468H53.7563V13.0965H56.9893ZM55.1465 20.781H56.834C57.2516 20.806 57.6695 20.7375 58.0573 20.5806C58.4451 20.4237 58.7931 20.1822 59.0758 19.8739C59.3585 19.5656 59.569 19.198 59.6918 18.7981C59.8145 18.3982 59.8466 17.9759 59.7856 17.562C59.8422 17.1498 59.8069 16.7301 59.6822 16.3331C59.5575 15.9361 59.3466 15.5716 59.0645 15.2657C58.7824 14.9598 58.4361 14.7201 58.0505 14.5638C57.6649 14.4074 57.2494 14.3383 56.834 14.3613H55.1465V20.781Z" fill="white"/>
<path d="M62.7709 18.6666C62.7285 18.2227 62.7792 17.7748 62.92 17.3517C63.0608 16.9286 63.2884 16.5396 63.5883 16.2096C63.8882 15.8797 64.2538 15.616 64.6616 15.4356C65.0693 15.2552 65.5103 15.162 65.9562 15.162C66.4021 15.162 66.8431 15.2552 67.2509 15.4356C67.6587 15.616 68.0242 15.8797 68.3241 16.2096C68.6241 16.5396 68.8517 16.9286 68.9925 17.3517C69.1332 17.7748 69.184 18.2227 69.1415 18.6666C69.1848 19.1109 69.1346 19.5594 68.9942 19.9831C68.8538 20.4069 68.6264 20.7967 68.3264 21.1273C68.0264 21.4579 67.6605 21.7221 67.2523 21.9029C66.8442 22.0837 66.4027 22.1771 65.9562 22.1771C65.5098 22.1771 65.0683 22.0837 64.6601 21.9029C64.2519 21.7221 63.8861 21.4579 63.5861 21.1273C63.2861 20.7967 63.0586 20.4069 62.9182 19.9831C62.7778 19.5594 62.7277 19.1109 62.7709 18.6666ZM67.7704 18.6666C67.7704 17.2024 67.1127 16.3463 65.9584 16.3463C64.7997 16.3463 64.1479 17.2025 64.1479 18.6666C64.1479 20.1424 64.7998 20.992 65.9584 20.992C67.1127 20.992 67.7704 20.1365 67.7704 18.6666H67.7704Z" fill="white"/>
<path d="M77.6099 22.0466H76.227L74.8311 17.072H74.7256L73.3355 22.0466H71.9658L70.104 15.2922H71.4561L72.666 20.4462H72.7656L74.1543 15.2922H75.4331L76.8218 20.4462H76.9273L78.1313 15.2922H79.4643L77.6099 22.0466Z" fill="white"/>
<path d="M81.0303 15.2922H82.3135V16.3652H82.4131C82.5821 15.9799 82.8671 15.6568 83.2284 15.4411C83.5897 15.2254 84.0093 15.1278 84.4287 15.1619C84.7574 15.1372 85.0874 15.1867 85.3943 15.3068C85.7012 15.427 85.9771 15.6146 86.2016 15.8559C86.4261 16.0972 86.5935 16.3859 86.6913 16.7006C86.7891 17.0153 86.8148 17.348 86.7666 17.6741V22.0466H85.4336V18.0088C85.4336 16.9234 84.9619 16.3836 83.9761 16.3836C83.7529 16.3732 83.5302 16.4111 83.3231 16.4949C83.116 16.5786 82.9295 16.7062 82.7763 16.8687C82.6231 17.0313 82.5069 17.2251 82.4356 17.4368C82.3643 17.6485 82.3396 17.8731 82.3633 18.0952V22.0466H81.0303L81.0303 15.2922Z" fill="white"/>
<path d="M88.8906 12.6555H90.2236V22.0466H88.8906V12.6555Z" fill="white"/>
<path d="M92.0766 18.6665C92.0341 18.2226 92.0849 17.7747 92.2257 17.3516C92.3665 16.9285 92.5942 16.5394 92.8941 16.2095C93.1941 15.8795 93.5597 15.6158 93.9675 15.4354C94.3753 15.255 94.8163 15.1618 95.2622 15.1618C95.7082 15.1618 96.1492 15.255 96.557 15.4354C96.9648 15.6158 97.3304 15.8795 97.6303 16.2095C97.9303 16.5394 98.1579 16.9285 98.2987 17.3516C98.4395 17.7747 98.4903 18.2226 98.4479 18.6665C98.4911 19.1108 98.4409 19.5593 98.3005 19.9831C98.16 20.4069 97.9325 20.7966 97.6325 21.1272C97.3324 21.4578 96.9666 21.722 96.5584 21.9028C96.1502 22.0836 95.7087 22.177 95.2622 22.177C94.8158 22.177 94.3743 22.0836 93.9661 21.9028C93.5579 21.722 93.192 21.4578 92.892 21.1272C92.592 20.7966 92.3644 20.4069 92.224 19.9831C92.0836 19.5593 92.0333 19.1108 92.0766 18.6665ZM97.0761 18.6665C97.0761 17.2024 96.4183 16.3462 95.2641 16.3462C94.1054 16.3462 93.4536 17.2024 93.4536 18.6665C93.4536 20.1423 94.1054 20.9919 95.2641 20.9919C96.4183 20.9919 97.0761 20.1365 97.0761 18.6665H97.0761Z" fill="white"/>
<path d="M99.8513 20.1365C99.8513 18.9207 100.757 18.2198 102.364 18.1202L104.193 18.0147V17.4317C104.193 16.7183 103.721 16.3155 102.81 16.3155C102.066 16.3155 101.551 16.5887 101.403 17.0662H100.112C100.248 15.9061 101.34 15.1619 102.872 15.1619C104.565 15.1619 105.52 16.0049 105.52 17.4317V22.0467H104.237V21.0975H104.132C103.918 21.438 103.617 21.7155 103.26 21.9018C102.904 22.0882 102.505 22.1765 102.103 22.158C101.819 22.1875 101.533 22.1572 101.262 22.0692C100.99 21.9811 100.741 21.8372 100.529 21.6468C100.316 21.4563 100.147 21.2235 100.03 20.9634C99.9133 20.7033 99.8524 20.4216 99.8513 20.1365ZM104.193 19.5594V18.9947L102.544 19.1001C101.614 19.1624 101.192 19.4788 101.192 20.0743C101.192 20.6822 101.719 21.0359 102.444 21.0359C102.657 21.0574 102.871 21.036 103.075 20.9728C103.279 20.9097 103.468 20.8062 103.632 20.6684C103.795 20.5307 103.929 20.3615 104.025 20.171C104.122 19.9804 104.179 19.7724 104.193 19.5594Z" fill="white"/>
<path d="M107.272 18.6665C107.272 16.5323 108.369 15.1802 110.076 15.1802C110.498 15.1607 110.917 15.2619 111.284 15.4717C111.651 15.6815 111.95 15.9914 112.147 16.3652H112.247V12.6555H113.58V22.0466H112.303V20.9795H112.197C111.985 21.3507 111.675 21.6568 111.301 21.8645C110.927 22.0722 110.503 22.1737 110.076 22.1579C108.358 22.158 107.272 20.8059 107.272 18.6665ZM108.649 18.6665C108.649 20.0991 109.325 20.9612 110.454 20.9612C111.577 20.9612 112.272 20.0867 112.272 18.6724C112.272 17.2647 111.57 16.3777 110.454 16.3777C109.332 16.3777 108.649 17.2456 108.649 18.6665H108.649Z" fill="white"/>
<path d="M119.095 18.6666C119.052 18.2227 119.103 17.7748 119.244 17.3517C119.385 16.9286 119.612 16.5396 119.912 16.2096C120.212 15.8797 120.578 15.616 120.986 15.4356C121.393 15.2552 121.834 15.162 122.28 15.162C122.726 15.162 123.167 15.2552 123.575 15.4356C123.983 15.616 124.348 15.8797 124.648 16.2096C124.948 16.5396 125.176 16.9286 125.316 17.3517C125.457 17.7748 125.508 18.2227 125.466 18.6666C125.509 19.1109 125.459 19.5594 125.318 19.9831C125.178 20.4069 124.95 20.7967 124.65 21.1273C124.35 21.4579 123.985 21.7221 123.576 21.9029C123.168 22.0837 122.727 22.1771 122.28 22.1771C121.834 22.1771 121.392 22.0837 120.984 21.9029C120.576 21.7221 120.21 21.4579 119.91 21.1273C119.61 20.7967 119.383 20.4069 119.242 19.9831C119.102 19.5594 119.052 19.1109 119.095 18.6666ZM124.094 18.6666C124.094 17.2024 123.437 16.3463 122.282 16.3463C121.124 16.3463 120.472 17.2025 120.472 18.6666C120.472 20.1424 121.124 20.992 122.282 20.992C123.437 20.992 124.094 20.1365 124.094 18.6666Z" fill="white"/>
<path d="M127.254 15.2922H128.537V16.3652H128.637C128.806 15.9799 129.091 15.6568 129.452 15.4411C129.814 15.2254 130.233 15.1278 130.653 15.1619C130.981 15.1372 131.311 15.1867 131.618 15.3068C131.925 15.427 132.201 15.6146 132.425 15.8559C132.65 16.0972 132.817 16.3859 132.915 16.7006C133.013 17.0153 133.039 17.348 132.99 17.6741V22.0466H131.657V18.0088C131.657 16.9234 131.186 16.3836 130.2 16.3836C129.977 16.3732 129.754 16.4111 129.547 16.4949C129.34 16.5786 129.153 16.7062 129 16.8687C128.847 17.0313 128.731 17.2251 128.659 17.4368C128.588 17.6485 128.564 17.8731 128.587 18.0952V22.0466H127.254V15.2922Z" fill="white"/>
<path d="M140.523 13.6106V15.323H141.986V16.4458H140.523V19.919C140.523 20.6265 140.814 20.9363 141.478 20.9363C141.648 20.9357 141.817 20.9255 141.986 20.9055V22.0159C141.747 22.0587 141.504 22.0815 141.261 22.084C139.779 22.084 139.188 21.5625 139.188 20.2602V16.4457H138.116V15.3229H139.188V13.6106H140.523Z" fill="white"/>
<path d="M143.807 12.6555H145.128V16.3777H145.234C145.411 15.9887 145.704 15.6638 146.072 15.4473C146.441 15.2308 146.867 15.1332 147.293 15.1677C147.62 15.1499 147.947 15.2045 148.25 15.3276C148.554 15.4507 148.826 15.6392 149.048 15.8797C149.271 16.1202 149.437 16.4068 149.536 16.719C149.634 17.0312 149.663 17.3613 149.619 17.6858V22.0466H148.285V18.0146C148.285 16.9358 147.782 16.3894 146.841 16.3894C146.612 16.3706 146.381 16.4021 146.165 16.4817C145.95 16.5613 145.754 16.687 145.592 16.8501C145.43 17.0132 145.306 17.2097 145.228 17.426C145.15 17.6422 145.12 17.8728 145.14 18.1018V22.0466H143.807L143.807 12.6555Z" fill="white"/>
<path d="M157.392 20.2229C157.211 20.8402 156.818 21.3742 156.283 21.7314C155.748 22.0886 155.105 22.2463 154.465 22.177C154.02 22.1887 153.578 22.1035 153.169 21.9272C152.76 21.7509 152.395 21.4878 152.098 21.1561C151.801 20.8244 151.58 20.432 151.45 20.0063C151.32 19.5806 151.284 19.1316 151.345 18.6907C151.286 18.2483 151.322 17.7984 151.452 17.3714C151.582 16.9444 151.802 16.5503 152.097 16.2157C152.392 15.8811 152.756 15.6138 153.164 15.432C153.571 15.2502 154.013 15.1581 154.459 15.1619C156.339 15.1619 157.472 16.4459 157.472 18.5669V19.032H152.703V19.1067C152.682 19.3546 152.713 19.6041 152.794 19.8392C152.876 20.0743 153.005 20.2899 153.174 20.4721C153.344 20.6542 153.549 20.799 153.778 20.8971C154.006 20.9952 154.253 21.0445 154.502 21.0417C154.821 21.08 155.144 21.0226 155.43 20.8767C155.716 20.7309 155.952 20.5033 156.109 20.2228L157.392 20.2229ZM152.703 18.0461H156.114C156.131 17.8194 156.1 17.5917 156.024 17.3777C155.948 17.1636 155.827 16.9679 155.671 16.8031C155.514 16.6383 155.325 16.5081 155.115 16.4208C154.905 16.3336 154.679 16.2912 154.452 16.2964C154.221 16.2935 153.993 16.3368 153.779 16.4237C153.565 16.5106 153.371 16.6394 153.208 16.8025C153.045 16.9655 152.917 17.1596 152.83 17.3732C152.743 17.5868 152.7 17.8156 152.703 18.0461H152.703Z" fill="white"/>
</g>
</g>
<defs>
<clipPath id="clip0_211_4347">
<rect width="190.5" height="60" fill="white" transform="translate(0.25)"/>
</clipPath>
<clipPath id="clip1_211_4347">
<rect width="189.996" height="60" fill="white" transform="translate(0.25)"/>
</clipPath>
</defs>
</svg>
