<svg width="201" height="60" viewBox="0 0 201 60" fill="none" xmlns="http://www.w3.org/2000/svg">
<g clip-path="url(#clip0_211_4380)">
<path d="M192.856 59.6296H7.77343C3.70161 59.6296 0.370117 56.2963 0.370117 52.2222V7.77779C0.370117 3.70372 3.70161 0.370384 7.77343 0.370384H192.856C196.928 0.370384 200.26 3.70372 200.26 7.77779V52.2222C200.26 56.2963 196.928 59.6296 192.856 59.6296Z" fill="black"/>
<path d="M192.856 0.370384H7.77343C3.70161 0.370384 0.370117 3.70372 0.370117 7.77779V52.2222C0.370117 56.2963 3.70161 59.6296 7.77343 59.6296H192.856C196.928 59.6296 200.26 56.2963 200.26 52.2222V7.77779C200.26 3.70372 196.928 0.370384 192.856 0.370384ZM192.856 1.55557C196.285 1.55557 199.075 4.34727 199.075 7.77779V52.2222C199.075 55.6533 196.285 58.445 192.856 58.445H7.77343C4.34481 58.445 1.55465 55.6533 1.55465 52.2222V7.77779C1.55465 4.34727 4.34481 1.55557 7.77343 1.55557H192.856Z" fill="#A6A6A6"/>
<path d="M70.5807 15.5458C70.5807 16.787 70.2133 17.7754 69.4776 18.5128C68.6419 19.3895 67.5527 19.8282 66.2138 19.8282C64.9315 19.8282 63.8413 19.3837 62.9447 18.4937C62.0466 17.6042 61.5984 16.5012 61.5984 15.1852C61.5984 13.8686 62.0466 12.7663 62.9447 11.8762C63.8413 10.9867 64.9315 10.5417 66.2138 10.5417C66.85 10.5417 67.4591 10.6661 68.0375 10.9144C68.6158 11.1633 69.0797 11.4937 69.4268 11.9074L68.6459 12.6892C68.0578 11.9861 67.248 11.6349 66.2138 11.6349C65.2786 11.6349 64.47 11.9636 63.7875 12.6215C63.105 13.2802 62.7638 14.1343 62.7638 15.1852C62.7638 16.2362 63.105 17.0903 63.7875 17.7489C64.47 18.4069 65.2786 18.7356 66.2138 18.7356C67.2058 18.7356 68.0329 18.4051 68.695 17.7431C69.1249 17.3119 69.3735 16.7125 69.44 15.9427H66.2138V14.875H70.5188C70.5604 15.1072 70.5807 15.33 70.5807 15.5458Z" fill="white"/>
<path d="M70.5808 15.5458H70.4327C70.4315 16.7587 70.0775 17.7008 69.373 18.408L69.3714 18.4092L69.3708 18.4104C68.5616 19.2569 67.5216 19.6782 66.2139 19.68C64.9658 19.6782 63.9212 19.2523 63.049 18.3889C62.1786 17.5237 61.7482 16.4676 61.7466 15.1852C61.7482 13.9022 62.1786 12.8467 63.049 11.9821C63.9212 11.1181 64.9658 10.6916 66.2139 10.6898C66.831 10.6898 67.4187 10.8102 67.9791 11.0504C68.5401 11.2923 68.9833 11.6094 69.3135 12.003L69.4269 11.9074L69.3222 11.8027L68.5413 12.5851L68.646 12.6892L68.76 12.5944C68.1445 11.8565 67.2805 11.4845 66.2139 11.4867C65.244 11.4855 64.3909 11.8322 63.6852 12.5151C62.9727 13.2003 62.6147 14.1024 62.6159 15.1852C62.6147 16.268 62.9727 17.1701 63.6852 17.8553C64.3909 18.5382 65.244 18.8849 66.2139 18.8837C67.2388 18.8855 68.1122 18.5376 68.7998 17.8479C69.2592 17.3871 69.5194 16.7489 69.5877 15.9554L69.6015 15.7945H66.3619V15.0231H70.5189V14.875L70.3731 14.9011C70.4136 15.1257 70.4327 15.3391 70.4327 15.5458H70.5808H70.7289C70.7289 15.3206 70.708 15.0892 70.6646 14.8485L70.6427 14.7268H66.0658V15.9427V16.0908H69.4401V15.9427L69.2926 15.9299C69.2273 16.6754 68.9901 17.2368 68.5905 17.6384C67.9542 18.2726 67.1735 18.5857 66.2139 18.5874C65.3133 18.5862 64.5493 18.276 63.8906 17.6424C63.2382 17.011 62.9136 16.2049 62.912 15.1852C62.9136 14.1655 63.2382 13.3594 63.8906 12.728C64.5493 12.0944 65.3133 11.7842 66.2139 11.783C67.2151 11.7854 67.9711 12.1163 68.5327 12.7848L68.6368 12.9086L69.5316 12.0122L69.6275 11.9162L69.5402 11.8125C69.1764 11.3785 68.6918 11.0341 68.0959 10.7784C67.4991 10.522 66.8692 10.3935 66.2139 10.3935C64.8976 10.3923 63.7616 10.8553 62.8402 11.7714C61.9154 12.6858 61.4493 13.8351 61.4504 15.1852C61.4493 16.5347 61.9154 17.6846 62.8408 18.5996C63.7616 19.5151 64.8976 19.9775 66.2139 19.9763C67.5847 19.9775 68.7218 19.5219 69.5847 18.6151L69.4777 18.5128L69.5824 18.6175C70.3494 17.8507 70.7299 16.8148 70.7289 15.5458H70.5808Z" fill="white"/>
<path d="M77.4055 11.8327H73.3598V14.6511H77.0083V15.7193H73.3598V18.5376H77.4055V19.6296H72.2192V10.7407H77.4055V11.8327Z" fill="white"/>
<path d="M77.4057 11.8327V11.6846H73.2118V14.7992H76.8603V15.5707L73.2118 15.5711V18.6858H77.2576V19.4815H72.3674V10.8889H77.2576V11.8327H77.4057V11.6846V11.8327H77.5537V10.7407V10.5926H72.0713V19.7778H77.5537V18.5376V18.3895H73.508V15.8674H77.1565V14.6511V14.503H73.508V11.9809H77.5537V11.8327H77.4057Z" fill="white"/>
<path d="M82.2196 19.6296H81.0772V11.8327H78.5959V10.7407H84.7009V11.8327H82.2196V19.6296Z" fill="white"/>
<path d="M82.2194 19.6296V19.4815H81.2252V11.6846H78.7439V10.8889H84.5527V11.6846H82.0714V19.6296H82.2194V19.4815V19.6296H82.3675V11.9809H84.8488V10.7407V10.5926H78.4478V11.8327V11.9809H80.929V19.7778H82.2194H82.3675V19.6296H82.2194Z" fill="white"/>
<path d="M89.1179 19.6296V10.7407H90.2591V19.6296H89.1179Z" fill="white"/>
<path d="M89.118 19.6296H89.2661V10.8889H90.1111V19.4815H89.118V19.6296H89.2661H89.118V19.7778H90.2592H90.4072V10.5926H89.118H88.97V19.7778H89.118V19.6296Z" fill="white"/>
<path d="M95.3227 19.6296H94.1804V11.8327H91.6992V10.7407H97.804V11.8327H95.3227V19.6296Z" fill="white"/>
<path d="M95.3228 19.6296V19.4815H94.3285V11.6846H91.8474V10.8889H97.656V11.6846H95.1747V19.6296H95.3228V19.4815V19.6296H95.4709V11.9809H97.9522V10.7407V10.5926H91.5513V11.8327V11.9809H94.0324V19.7778H95.3228H95.4709V19.6296H95.3228Z" fill="white"/>
<path d="M103.69 17.7368C104.347 18.4029 105.152 18.7356 106.103 18.7356C107.055 18.7356 107.86 18.4029 108.516 17.7368C109.174 17.0707 109.504 16.2193 109.504 15.1852C109.504 14.1511 109.174 13.2997 108.516 12.6337C107.86 11.9676 107.055 11.6349 106.103 11.6349C105.152 11.6349 104.347 11.9676 103.69 12.6337C103.033 13.2997 102.704 14.1511 102.704 15.1852C102.704 16.2193 103.033 17.0707 103.69 17.7368ZM109.361 18.4809C108.487 19.3796 107.401 19.8282 106.103 19.8282C104.804 19.8282 103.719 19.3796 102.847 18.4809C101.973 17.5833 101.538 16.4845 101.538 15.1852C101.538 13.886 101.973 12.787 102.847 11.8895C103.719 10.9907 104.804 10.5417 106.103 10.5417C107.394 10.5417 108.478 10.9931 109.355 11.8953C110.231 12.7975 110.67 13.8941 110.67 15.1852C110.67 16.4845 110.232 17.5833 109.361 18.4809Z" fill="white"/>
<path d="M103.69 17.7368L103.584 17.8409C104.266 18.5336 105.117 18.8855 106.103 18.8837C107.089 18.8855 107.941 18.5336 108.622 17.8409C109.308 17.1476 109.653 16.2505 109.652 15.1852C109.653 14.1199 109.308 13.2228 108.622 12.5295C107.941 11.8368 107.089 11.4849 106.103 11.4867C105.117 11.4849 104.266 11.8368 103.584 12.5295C102.9 13.2228 102.554 14.1199 102.556 15.1852C102.554 16.2505 102.9 17.1476 103.584 17.8409L103.69 17.7368L103.795 17.6326C103.167 16.9931 102.853 16.1886 102.852 15.1852C102.853 14.1818 103.167 13.3774 103.795 12.7378C104.429 12.0984 105.186 11.7848 106.103 11.783C107.02 11.7848 107.779 12.0984 108.411 12.7378C109.04 13.3774 109.354 14.1818 109.356 15.1852C109.354 16.1886 109.04 16.9931 108.411 17.6326C107.779 18.272 107.02 18.5856 106.103 18.5874C105.186 18.5856 104.429 18.272 103.795 17.6326L103.69 17.7368ZM109.361 18.4809L109.255 18.3779C108.406 19.2483 107.368 19.6782 106.103 19.68C104.838 19.6782 103.8 19.2483 102.953 18.3779L102.949 18.3734L102.953 18.3779C102.106 17.5046 101.687 16.4514 101.686 15.1852C101.687 13.919 102.106 12.8658 102.953 11.9925C103.8 11.1221 104.838 10.6916 106.103 10.6898C107.36 10.6916 108.395 11.1239 109.249 11.9988C110.099 12.8762 110.52 13.9277 110.522 15.1852C110.52 16.4514 110.101 17.5046 109.255 18.3779L109.361 18.4809L109.467 18.5839C110.365 17.6615 110.819 16.5174 110.818 15.1852C110.819 13.8606 110.363 12.7188 109.461 11.7923C108.559 10.8622 107.429 10.3919 106.103 10.3935C104.771 10.3919 103.637 10.86 102.741 11.7865V11.7859C101.841 12.7089 101.389 13.8531 101.39 15.1852C101.389 16.5174 101.841 17.6615 102.741 18.5845L102.745 18.5886L102.741 18.5839C103.637 19.5104 104.771 19.9775 106.103 19.9763C107.435 19.9775 108.569 19.5104 109.467 18.5839L109.361 18.4809Z" fill="white"/>
<path d="M112.272 19.6296V10.7407H113.661L117.979 17.6557H118.028L117.979 15.9427V10.7407H119.121V19.6296H117.929L113.412 12.3796H113.363L113.412 14.0932V19.6296H112.272Z" fill="white"/>
<path d="M112.272 19.6296H112.42V10.8889H113.579L117.897 17.8038H118.028H118.18L118.127 15.9404V10.8889H118.973V19.4815H118.012L113.495 12.2314H113.363H113.211L113.264 14.0955V19.4815H112.272V19.6296H112.42H112.272V19.7778H113.412H113.56V14.0908L113.511 12.3755L113.363 12.3795V12.5277H113.412V12.3795L113.287 12.4584L117.847 19.7778H119.121H119.269V10.5926H117.979H117.831V15.9444L117.88 17.6597L118.028 17.6557V17.5075H117.979V17.6557L118.104 17.577L113.743 10.5926H112.272H112.124V19.7778H112.272V19.6296Z" fill="white"/>
<path d="M158.706 44.8148H161.469V26.2945H158.706V44.8148ZM183.592 32.9659L180.425 40.9954H180.33L177.043 32.9659H174.067L178.996 44.1886L176.186 50.4311H179.068L186.664 32.9659H183.592ZM167.923 42.7113C167.017 42.7113 165.756 42.2587 165.756 41.1384C165.756 39.7089 167.328 39.1609 168.684 39.1609C169.9 39.1609 170.47 39.423 171.209 39.7807C170.994 41.496 169.518 42.7113 167.923 42.7113ZM168.257 32.5607C166.256 32.5607 164.185 33.4427 163.327 35.3964L165.779 36.4207C166.304 35.3965 167.279 35.0625 168.304 35.0625C169.733 35.0625 171.185 35.9207 171.209 37.4456V37.636C170.709 37.3501 169.638 36.9213 168.328 36.9213C165.685 36.9213 162.993 38.3744 162.993 41.0908C162.993 43.5689 165.161 45.1655 167.589 45.1655C169.447 45.1655 170.47 44.3316 171.114 43.3548H171.209V44.7842H173.876V37.6834C173.876 34.3959 171.424 32.5607 168.257 32.5607ZM151.182 35.2205H147.252V28.8722H151.182C153.247 28.8722 154.42 30.5833 154.42 32.0462C154.42 33.4815 153.247 35.2205 151.182 35.2205ZM151.111 26.2945H144.49V44.8148H147.252V37.7981H151.111C154.173 37.7981 157.183 35.5799 157.183 32.0462C157.183 28.5127 154.173 26.2945 151.111 26.2945ZM115.01 42.7147C113.102 42.7147 111.504 41.1157 111.504 38.9196C111.504 36.7003 113.102 35.077 115.01 35.077C116.895 35.077 118.374 36.7003 118.374 38.9196C118.374 41.1157 116.895 42.7147 115.01 42.7147ZM118.183 34.003H118.087C117.467 33.2633 116.274 32.595 114.772 32.595C111.623 32.595 108.737 35.3634 108.737 38.9196C108.737 42.452 111.623 45.1967 114.772 45.1967C116.274 45.1967 117.467 44.5283 118.087 43.765H118.183V44.6719C118.183 47.0828 116.895 48.3716 114.82 48.3716C113.126 48.3716 112.076 47.1539 111.647 46.1279L109.238 47.1302C109.929 48.8009 111.766 50.8536 114.82 50.8536C118.064 50.8536 120.807 48.9439 120.807 44.2899V32.9769H118.183V34.003ZM122.715 44.8148H125.482V26.2939H122.715V44.8148ZM129.561 38.7049C129.49 36.2702 131.446 35.0295 132.853 35.0295C133.951 35.0295 134.881 35.5781 135.19 36.3664L129.561 38.7049ZM138.149 36.6047C137.625 35.1962 136.025 32.595 132.758 32.595C129.513 32.595 126.818 35.1487 126.818 38.8959C126.818 42.4283 129.49 45.1967 133.068 45.1967C135.954 45.1967 137.625 43.4305 138.316 42.4045L136.169 40.9722C135.454 42.0225 134.475 42.7147 133.068 42.7147C131.66 42.7147 130.659 42.0701 130.014 40.8055L138.435 37.3206L138.149 36.6047ZM71.0626 34.5283V37.2013H77.4553C77.2645 38.7049 76.7636 39.8027 76.0001 40.5665C75.0701 41.4976 73.6149 42.5237 71.0626 42.5237C67.1265 42.5237 64.0495 39.3495 64.0495 35.4114C64.0495 31.4733 67.1265 28.2987 71.0626 28.2987C73.1857 28.2987 74.7358 29.1342 75.8809 30.2083L77.7654 28.323C76.1673 26.7951 74.044 25.6256 71.0626 25.6256C65.6713 25.6256 61.1392 30.0173 61.1392 35.4114C61.1392 40.8055 65.6713 45.1967 71.0626 45.1967C73.973 45.1967 76.1673 44.2425 77.8846 42.452C79.6498 40.6858 80.1987 38.2037 80.1987 36.1991C80.1987 35.5781 80.1512 35.0058 80.0552 34.5283H71.0626ZM87.4667 42.7147C85.558 42.7147 83.9119 41.1394 83.9119 38.8959C83.9119 36.6285 85.558 35.077 87.4667 35.077C89.3747 35.077 91.0207 36.6285 91.0207 38.8959C91.0207 41.1394 89.3747 42.7147 87.4667 42.7147ZM87.4667 32.595C83.9836 32.595 81.1448 35.2442 81.1448 38.8959C81.1448 42.5237 83.9836 45.1967 87.4667 45.1967C90.9491 45.1967 93.7878 42.5237 93.7878 38.8959C93.7878 35.2442 90.9491 32.595 87.4667 32.595ZM101.256 42.7147C99.3484 42.7147 97.7022 41.1394 97.7022 38.8959C97.7022 36.6285 99.3484 35.077 101.256 35.077C103.165 35.077 104.811 36.6285 104.811 38.8959C104.811 41.1394 103.165 42.7147 101.256 42.7147ZM101.256 32.595C97.7734 32.595 94.9353 35.2442 94.9353 38.8959C94.9353 42.5237 97.7734 45.1967 101.256 45.1967C104.739 45.1967 107.578 42.5237 107.578 38.8959C107.578 35.2442 104.739 32.595 101.256 32.595Z" fill="white"/>
<path d="M15.9315 48.3548L15.8215 48.2495C15.3906 47.7933 15.1362 47.085 15.1362 46.1678V46.3837V13.6192C15.1362 13.6163 15.1362 13.6141 15.1362 13.6117C15.1362 13.6145 15.1362 13.6169 15.1362 13.6198V13.8363C15.1362 12.8431 15.4328 12.0949 15.9297 11.6464L34.2748 30.0012L15.9315 48.3548ZM15.1362 13.6099C15.1362 13.5283 15.1385 13.449 15.1426 13.3709C15.1385 13.4484 15.1362 13.5283 15.1362 13.6099ZM15.1426 13.3674C15.1426 13.3664 15.1426 13.3652 15.143 13.364C15.1426 13.3652 15.1426 13.3664 15.1426 13.3674ZM15.143 13.357C15.143 13.3564 15.143 13.3558 15.143 13.3552C15.143 13.3558 15.143 13.3564 15.143 13.357Z" fill="url(#paint0_linear_211_4380)"/>
<path d="M40.389 36.3385L40.5285 36.2592L47.7732 32.1406C48.4639 31.7477 48.9243 31.2714 49.1539 30.7674C48.9249 31.2714 48.4644 31.7483 47.7732 32.1412L40.5285 36.2598L40.389 36.3385ZM40.3908 36.1215L34.2749 30.0012L40.3902 23.8819L47.7732 28.0786C48.7108 28.6117 49.2371 29.2986 49.3251 30.0006C49.3251 30.0012 49.3251 30.0024 49.3251 30.0034C49.2371 30.7037 48.7108 31.3912 47.7732 31.9241L40.3908 36.1215Z" fill="url(#paint1_linear_211_4380)"/>
<path d="M17.2392 49.0538C16.7268 49.0538 16.2796 48.8871 15.9309 48.5723L15.9315 48.5717C16.2802 48.8865 16.7279 49.0538 17.2404 49.0538C17.2848 49.0538 17.33 49.0526 17.3757 49.0504C17.3294 49.0526 17.2836 49.0538 17.2392 49.0538ZM17.2398 48.8367C16.7274 48.8373 16.2802 48.6701 15.9315 48.3553V48.3548L34.2748 30.0012L40.3907 36.1215L18.8986 48.3397C18.304 48.677 17.7406 48.8367 17.2398 48.8367ZM15.9263 48.5683C15.8939 48.5388 15.8621 48.5075 15.8308 48.4751L15.9263 48.5683Z" fill="url(#paint2_linear_211_4380)"/>
<path d="M34.2748 30.0012L15.9297 11.6464C16.2784 11.3322 16.725 11.1655 17.2368 11.1655C17.7389 11.1655 18.3027 11.3258 18.8986 11.6637L40.3901 23.882L34.2748 30.0012ZM40.5284 23.7437L18.8986 11.4474C18.3027 11.1094 17.7389 10.9491 17.2368 10.9491C17.2344 10.9491 17.2328 10.9491 17.2305 10.9491C17.2334 10.9491 17.2356 10.9491 17.2392 10.9491C17.7401 10.9491 18.3033 11.1088 18.8986 11.4468L40.5284 23.7437Z" fill="url(#paint3_linear_211_4380)"/>
<path d="M17.3758 49.0504C17.8413 49.0237 18.3567 48.8634 18.8986 48.5561L40.389 36.3385L18.8986 48.5561C18.3572 48.864 17.8413 49.0237 17.3758 49.0504ZM15.931 48.5723L15.9264 48.5683C15.928 48.5695 15.9298 48.5711 15.931 48.5723ZM15.8309 48.4751L15.8215 48.4659V48.4653C15.8251 48.4687 15.8279 48.4721 15.8309 48.4751Z" fill="black"/>
<path d="M40.3889 36.3385L40.5284 36.2592L40.3889 36.3385Z" fill="url(#paint4_linear_211_4380)"/>
<path d="M17.2405 49.0538C16.728 49.0538 16.2802 48.8865 15.9315 48.5717L15.931 48.5723C15.9298 48.5711 15.928 48.5695 15.9264 48.5683L15.8309 48.4751C15.8279 48.4721 15.8251 48.4687 15.8215 48.4653L15.9315 48.3553C16.2802 48.6701 16.7274 48.8373 17.2399 48.8367C17.7406 48.8367 18.304 48.677 18.8986 48.3397L40.3908 36.1215L40.5285 36.2593L40.389 36.3385L18.8986 48.5561C18.3567 48.8634 17.8413 49.0237 17.3758 49.0504C17.33 49.0526 17.2849 49.0538 17.2405 49.0538Z" fill="url(#paint5_linear_211_4380)"/>
<path d="M15.8215 48.4659C15.3906 48.0098 15.1362 47.3015 15.1362 46.3843V46.3837C15.1362 47.3015 15.3906 48.0092 15.8215 48.4654V48.4659Z" fill="black"/>
<path d="M15.8215 48.4653C15.3906 48.0092 15.1362 47.3015 15.1362 46.3837V46.1678C15.1362 47.085 15.3906 47.7933 15.8215 48.2495L15.9315 48.3548L15.8215 48.4653Z" fill="url(#paint6_linear_211_4380)"/>
<path d="M15.8215 48.4653L15.9316 48.3548V48.3553L15.8215 48.4653Z" fill="url(#paint7_linear_211_4380)"/>
<path d="M49.1538 30.7674C49.2677 30.5173 49.325 30.2604 49.325 30.0034C49.325 30.003 49.325 30.0024 49.325 30.0024C49.325 30.2598 49.2677 30.5167 49.1538 30.7674Z" fill="black"/>
<path d="M40.5283 36.2593L40.3906 36.1215L47.7731 31.9242C48.7106 31.3913 49.237 30.7037 49.3249 30.0034C49.3249 30.2605 49.2676 30.5173 49.1538 30.7674C48.9241 31.2714 48.4638 31.7477 47.7731 32.1406L40.5283 36.2593Z" fill="url(#paint8_linear_211_4380)"/>
<path d="M49.325 30.0012V30.0006C49.3245 29.2257 48.8068 28.4509 47.7732 27.8629L40.5284 23.7442H40.5278L40.5284 23.7437L47.7732 27.8623C48.808 28.4503 49.3262 29.2263 49.325 30.0012Z" fill="#404040"/>
<path d="M49.3251 30.0006C49.2371 29.2987 48.7107 28.6117 47.7732 28.0787L40.3901 23.8819L40.5278 23.7442H40.5284L47.7732 27.8628C48.8068 28.4508 49.3245 29.2256 49.3251 30.0006Z" fill="url(#paint9_linear_211_4380)"/>
<path d="M15.1362 13.6117C15.1362 13.6111 15.1362 13.6105 15.1362 13.6099C15.1362 13.6105 15.1362 13.6111 15.1362 13.6117ZM15.1426 13.371C15.1426 13.3698 15.1426 13.3686 15.1426 13.3674C15.1426 13.3686 15.1426 13.3698 15.1426 13.371ZM15.143 13.364C15.143 13.3616 15.143 13.3594 15.143 13.357C15.143 13.3594 15.143 13.3616 15.143 13.364ZM15.143 13.3553C15.2288 11.8333 16.0559 10.9542 17.2259 10.949C16.7186 10.952 16.2768 11.1187 15.9309 11.4305V11.4299L15.9268 11.4341C15.8903 11.467 15.8557 11.5018 15.8215 11.5376C15.4328 11.949 15.1876 12.5653 15.143 13.3553Z" fill="#404040"/>
<path d="M15.1362 13.8363V13.6199C15.1362 13.6169 15.1362 13.6145 15.1362 13.6117C15.1362 13.6111 15.1362 13.6105 15.1362 13.6099C15.1362 13.5283 15.1385 13.4485 15.1426 13.371C15.1426 13.3698 15.1426 13.3686 15.1426 13.3674C15.1426 13.3664 15.1426 13.3652 15.143 13.364C15.143 13.3616 15.143 13.3594 15.143 13.357C15.143 13.3565 15.143 13.3559 15.143 13.3553C15.1876 12.5653 15.4328 11.949 15.8215 11.5376L15.9297 11.6464C15.4328 12.095 15.1362 12.8431 15.1362 13.8363ZM15.9268 11.4341L15.9309 11.4299C15.9297 11.4317 15.9279 11.4329 15.9268 11.4341Z" fill="url(#paint10_linear_211_4380)"/>
<path d="M40.3902 23.8819L18.8986 11.6637C18.3028 11.3257 17.739 11.1654 17.2369 11.1654C16.725 11.1654 16.2785 11.3321 15.9298 11.6463L15.8215 11.5376C15.8557 11.5017 15.8904 11.4669 15.9268 11.434C15.928 11.4329 15.9298 11.4317 15.931 11.4305C16.2768 11.1186 16.7187 10.952 17.2259 10.949C17.2271 10.949 17.2288 10.949 17.2305 10.949C17.2329 10.949 17.2345 10.949 17.2369 10.949C17.739 10.949 18.3028 11.1093 18.8986 11.4474L40.5285 23.7437L40.5279 23.7441L40.3902 23.8819Z" fill="url(#paint11_linear_211_4380)"/>
</g>
<defs>
<linearGradient id="paint0_linear_211_4380" x1="32.6482" y1="13.2736" x2="7.78522" y2="38.1228" gradientUnits="userSpaceOnUse">
<stop stop-color="#00A0FF"/>
<stop offset="0.00657445" stop-color="#00A1FF"/>
<stop offset="0.2601" stop-color="#00BEFF"/>
<stop offset="0.5122" stop-color="#00D2FF"/>
<stop offset="0.7604" stop-color="#00DFFF"/>
<stop offset="1" stop-color="#00E3FF"/>
</linearGradient>
<linearGradient id="paint1_linear_211_4380" x1="50.4674" y1="30.0021" x2="14.6398" y2="30.0021" gradientUnits="userSpaceOnUse">
<stop stop-color="#FFE000"/>
<stop offset="0.4087" stop-color="#FFBD00"/>
<stop offset="0.7754" stop-color="#FFA500"/>
<stop offset="1" stop-color="#FF9C00"/>
</linearGradient>
<linearGradient id="paint2_linear_211_4380" x1="37.1304" y1="33.4016" x2="3.41445" y2="67.099" gradientUnits="userSpaceOnUse">
<stop stop-color="#FF3A44"/>
<stop offset="1" stop-color="#C31162"/>
</linearGradient>
<linearGradient id="paint3_linear_211_4380" x1="11.1748" y1="0.631443" x2="26.2304" y2="15.6787" gradientUnits="userSpaceOnUse">
<stop stop-color="#32A071"/>
<stop offset="0.0685" stop-color="#2DA771"/>
<stop offset="0.4762" stop-color="#15CF74"/>
<stop offset="0.8009" stop-color="#06E775"/>
<stop offset="1" stop-color="#00F076"/>
</linearGradient>
<linearGradient id="paint4_linear_211_4380" x1="50.4669" y1="30.0022" x2="14.6408" y2="30.0022" gradientUnits="userSpaceOnUse">
<stop stop-color="#CCB300"/>
<stop offset="0.4087" stop-color="#CC9700"/>
<stop offset="0.7754" stop-color="#CC8400"/>
<stop offset="1" stop-color="#CC7D00"/>
</linearGradient>
<linearGradient id="paint5_linear_211_4380" x1="37.1305" y1="33.4016" x2="3.41451" y2="67.099" gradientUnits="userSpaceOnUse">
<stop stop-color="#CC2E36"/>
<stop offset="1" stop-color="#9C0E4E"/>
</linearGradient>
<linearGradient id="paint6_linear_211_4380" x1="32.6482" y1="13.2735" x2="7.78515" y2="38.1228" gradientUnits="userSpaceOnUse">
<stop stop-color="#008DE0"/>
<stop offset="0.00657445" stop-color="#008DE0"/>
<stop offset="0.2601" stop-color="#00A7E0"/>
<stop offset="0.5122" stop-color="#00B8E0"/>
<stop offset="0.7604" stop-color="#00C4E0"/>
<stop offset="1" stop-color="#00C7E0"/>
</linearGradient>
<linearGradient id="paint7_linear_211_4380" x1="37.1314" y1="33.402" x2="3.41627" y2="67.1008" gradientUnits="userSpaceOnUse">
<stop stop-color="#E0333C"/>
<stop offset="1" stop-color="#AB0F56"/>
</linearGradient>
<linearGradient id="paint8_linear_211_4380" x1="50.4673" y1="30.0021" x2="14.6397" y2="30.0021" gradientUnits="userSpaceOnUse">
<stop stop-color="#E0C500"/>
<stop offset="0.4087" stop-color="#E0A600"/>
<stop offset="0.7754" stop-color="#E09100"/>
<stop offset="1" stop-color="#E08900"/>
</linearGradient>
<linearGradient id="paint9_linear_211_4380" x1="50.4674" y1="30.0021" x2="14.6398" y2="30.0021" gradientUnits="userSpaceOnUse">
<stop stop-color="#FFE840"/>
<stop offset="0.4087" stop-color="#FFCE40"/>
<stop offset="0.7754" stop-color="#FFBC40"/>
<stop offset="1" stop-color="#FFB540"/>
</linearGradient>
<linearGradient id="paint10_linear_211_4380" x1="32.6482" y1="13.2736" x2="7.78525" y2="38.1229" gradientUnits="userSpaceOnUse">
<stop stop-color="#40B8FF"/>
<stop offset="0.00657445" stop-color="#40B9FF"/>
<stop offset="0.2601" stop-color="#40CEFF"/>
<stop offset="0.5122" stop-color="#40DDFF"/>
<stop offset="0.7604" stop-color="#40E7FF"/>
<stop offset="1" stop-color="#40EAFF"/>
</linearGradient>
<linearGradient id="paint11_linear_211_4380" x1="11.1749" y1="0.631373" x2="26.2305" y2="15.6786" gradientUnits="userSpaceOnUse">
<stop stop-color="#65B895"/>
<stop offset="0.0685" stop-color="#62BD95"/>
<stop offset="0.4762" stop-color="#50DB97"/>
<stop offset="0.8009" stop-color="#44ED98"/>
<stop offset="1" stop-color="#40F498"/>
</linearGradient>
<clipPath id="clip0_211_4380">
<rect width="199.889" height="59.2593" fill="white" transform="matrix(1 0 0 -1 0.370117 59.6296)"/>
</clipPath>
</defs>
</svg>
