<svg width="220" height="220" viewBox="0 0 220 220" fill="none" xmlns="http://www.w3.org/2000/svg">
<rect width="220" height="220" fill="white"/>
<g clip-path="url(#clip0_410_3888)">
<path opacity="0.35" d="M196.929 97.504C192.032 120.049 175.651 125.859 153.773 134.757C151.52 135.779 149.478 136.835 147.613 137.891H89.4612C88.898 137.152 88.194 136.448 87.3843 135.743C80.0274 129.793 66.9328 134.863 59.0478 136.518C51.1629 138.173 32.0138 140.11 25.3608 124.863C25.3608 124.863 9.37975 88.2786 47.1148 65.4617C70.6288 51.9406 86.7507 67.3983 97.2757 67.2223C107.801 67.0462 127.443 49.511 127.443 49.511C127.443 49.511 145.853 31.5533 158.63 50.1096C163.77 60.1096 160.074 71.5532 176.653 71.0251C193.233 70.4969 201.171 77.9718 196.929 97.504Z" fill="url(#paint0_linear_410_3888)"/>
<path d="M187.845 138.183H40.0282C39.5352 138.183 39.1479 137.796 39.1479 137.303C39.1479 136.81 39.5352 136.423 40.0282 136.423H187.845C188.338 136.423 188.725 136.81 188.725 137.303C188.725 137.796 188.338 138.183 187.845 138.183Z" fill="#768895"/>
<path d="M34.5 138.183H32.2113C31.7183 138.183 31.331 137.796 31.331 137.303C31.331 136.81 31.7183 136.423 32.2113 136.423H34.5352C35.0282 136.423 35.4155 136.81 35.4155 137.303C35.4155 137.796 34.993 138.183 34.5 138.183Z" fill="#768895"/>
<g clip-path="url(#clip1_410_3888)">
<path fill-rule="evenodd" clip-rule="evenodd" d="M166.369 112.354C166.369 111.471 167.085 110.755 167.969 110.755C168.852 110.755 169.568 111.471 169.568 112.354C169.568 113.237 168.852 113.953 167.969 113.953C167.085 113.953 166.369 113.237 166.369 112.354ZM167.969 111.288C167.38 111.288 166.903 111.765 166.903 112.354C166.903 112.943 167.38 113.42 167.969 113.42C168.557 113.42 169.035 112.943 169.035 112.354C169.035 111.765 168.557 111.288 167.969 111.288Z" fill="#589AB8"/>
<path fill-rule="evenodd" clip-rule="evenodd" d="M45.9437 53.8668C45.9437 52.9836 46.6596 52.2676 47.5429 52.2676C48.4261 52.2676 49.142 52.9836 49.142 53.8668C49.142 54.75 48.4261 55.466 47.5429 55.466C46.6596 55.466 45.9437 54.75 45.9437 53.8668ZM47.5429 52.8007C46.954 52.8007 46.4767 53.278 46.4767 53.8668C46.4767 54.4556 46.954 54.9329 47.5429 54.9329C48.1317 54.9329 48.609 54.4556 48.609 53.8668C48.609 53.278 48.1317 52.8007 47.5429 52.8007Z" fill="#589AB8"/>
<path d="M32.4876 126.412C33.2236 126.412 33.8203 125.815 33.8203 125.079C33.8203 124.343 33.2236 123.746 32.4876 123.746C31.7516 123.746 31.1549 124.343 31.1549 125.079C31.1549 125.815 31.7516 126.412 32.4876 126.412Z" fill="#589AB8"/>
<path fill-rule="evenodd" clip-rule="evenodd" d="M179.859 51.5634L180.65 53.1802L182.427 53.4536L181.156 54.6904L181.43 56.4721L179.859 55.6182L178.276 56.4783L178.586 54.6905L177.282 53.455L179.068 53.1802L179.859 51.5634ZM179.859 52.7761L179.424 53.6647L178.438 53.8164L179.16 54.4999L178.989 55.484L179.859 55.0115L180.74 55.4902L180.587 54.5L181.289 53.8178L180.294 53.6647L179.859 52.7761Z" fill="#589AB8"/>
<path fill-rule="evenodd" clip-rule="evenodd" d="M187.995 100.155L188.673 101.546L190.209 101.76L189.1 102.869L189.353 104.421L187.988 103.667L186.586 104.421L186.875 102.868L185.732 101.762L187.282 101.546L187.995 100.155ZM187.983 101.347L187.63 102.035L186.888 102.139L187.451 102.685L187.314 103.424L187.991 103.059L188.651 103.424L188.53 102.685L189.075 102.14L188.318 102.035L187.983 101.347Z" fill="#589AB8"/>
<path fill-rule="evenodd" clip-rule="evenodd" d="M46.4083 97.6902L47.1981 99.3041L48.9765 99.5435L47.7077 100.812L48.0165 102.562L46.4096 101.742L44.8257 102.568L45.1351 100.815L43.831 99.5447L45.6185 99.3041L46.4083 97.6902ZM46.4083 98.9029L45.972 99.7944L44.9876 99.9269L45.7091 100.629L45.5388 101.595L46.407 101.142L47.3055 101.6L47.1345 100.632L47.838 99.9281L46.8445 99.7944L46.4083 98.9029Z" fill="#589AB8"/>
</g>
<path d="M82.388 133.095C82.388 133.963 82.6552 134.831 83.1896 135.566C84.0579 136.802 85.4606 137.47 86.8633 137.47H102.126C104.564 137.47 106.535 135.499 106.535 133.061H82.388V133.095Z" fill="#B7E0C8"/>
<path d="M96.2816 134.297C93.644 134.297 91.5057 132.159 91.5057 129.521C91.5057 126.883 93.644 124.745 96.2816 124.745C98.9193 124.745 101.058 126.883 101.058 129.521C101.058 132.159 98.9193 134.297 96.2816 134.297Z" fill="#B7E0C8"/>
<path d="M91.7395 128.619C92.0735 127.751 92.6079 126.983 93.2758 126.415C93.9438 125.847 94.7787 125.48 95.6137 125.313C96.482 125.179 97.3838 125.246 98.2187 125.58C99.0537 125.914 99.8218 126.482 100.456 127.25C100.156 126.315 99.4545 125.447 98.5527 124.946C97.651 124.411 96.5488 124.177 95.4801 124.344C94.4114 124.478 93.4094 125.012 92.6747 125.781C91.9399 126.549 91.4723 127.551 91.4055 128.586C91.4055 128.686 91.4723 128.753 91.5725 128.753C91.6393 128.72 91.7061 128.686 91.7395 128.619Z" fill="#768895"/>
<path d="M97.7177 133.095C97.7177 135.533 99.6882 137.503 102.126 137.503C104.564 137.503 106.535 135.533 106.535 133.095C106.535 130.657 104.564 128.686 102.126 128.686C99.6882 128.72 97.7177 130.69 97.7177 133.095Z" fill="#B7E0C8"/>
<path d="M97.9181 134.364C97.7511 133.095 98.0851 131.892 98.7531 130.957C99.0871 130.49 99.5212 130.089 99.9888 129.822C100.456 129.521 100.991 129.321 101.559 129.254C102.661 129.087 103.83 129.354 104.731 130.089C105.633 130.79 106.301 131.859 106.501 133.128C106.735 131.859 106.234 130.456 105.232 129.521C104.264 128.553 102.761 128.085 101.392 128.285C100.69 128.386 100.022 128.653 99.4544 129.054C98.8867 129.454 98.3857 129.955 98.0517 130.556C97.4172 131.725 97.3504 133.228 97.9181 134.364Z" fill="#768895"/>
<path d="M91.5725 137.503C89.0824 137.503 87.0638 135.5 87.0638 133.028C87.0638 130.556 89.0824 128.553 91.5725 128.553C94.0626 128.553 96.0813 130.556 96.0813 133.028C96.0813 135.5 94.0626 137.503 91.5725 137.503Z" fill="#B7E0C8"/>
<path d="M87.2642 134.297C87.0972 132.995 87.4312 131.759 88.0991 130.79C88.4665 130.323 88.8673 129.922 89.3683 129.621C89.8692 129.321 90.4036 129.12 90.9714 129.054C92.1069 128.887 93.3092 129.154 94.2444 129.889C95.1795 130.59 95.8475 131.692 96.0479 132.995C96.2817 131.692 95.7473 130.256 94.7454 129.287C93.7434 128.285 92.2405 127.818 90.8378 128.052C90.1364 128.152 89.4351 128.419 88.8673 128.82C88.2995 129.221 87.7986 129.755 87.4646 130.356C86.7632 131.625 86.663 133.128 87.2642 134.297Z" fill="#768895"/>
<path d="M82.3881 133.095C82.3881 133.963 82.6552 134.831 83.1896 135.566C84.058 136.802 85.4607 137.47 86.8634 137.47C87.7651 137.47 88.6335 137.203 89.435 136.668C90.6708 135.8 91.3387 134.464 91.3721 133.095C91.4055 132.16 91.1383 131.224 90.5706 130.423C89.1679 128.386 86.3624 127.885 84.3251 129.321C83.0226 130.223 82.3547 131.659 82.3881 133.095Z" fill="#B7E0C8"/>
<path d="M82.4883 134.097C82.3881 132.794 82.7555 131.558 83.4902 130.657C83.8576 130.189 84.2918 129.822 84.8262 129.555C85.3271 129.287 85.8949 129.12 86.4627 129.054C87.5982 128.953 88.7671 129.287 89.6689 130.055C90.5706 130.824 91.1718 131.959 91.3388 133.228C91.6394 131.959 91.1718 130.49 90.2366 129.488C89.3015 128.452 87.7986 127.918 86.3959 128.052C85.6945 128.118 84.9932 128.352 84.392 128.72C83.7908 129.087 83.2565 129.588 82.8891 130.189C82.1209 131.358 81.9873 132.894 82.4883 134.097Z" fill="#768895"/>
<path d="M97.0499 137.503C95.4452 137.503 94.1443 136.202 94.1443 134.598C94.1443 132.993 95.4452 131.692 97.0499 131.692C98.6546 131.692 99.9555 132.993 99.9555 134.598C99.9555 136.202 98.6546 137.503 97.0499 137.503Z" fill="#B7E0C8"/>
<path d="M94.879 132.627C95.4801 132.26 96.0813 132.093 96.6825 132.093C97.2836 132.093 97.8514 132.226 98.319 132.527C98.7865 132.828 99.1873 133.262 99.4545 133.796C99.7217 134.33 99.8219 134.965 99.7885 135.666C100.256 135.099 100.39 134.297 100.223 133.562C100.056 132.794 99.5547 132.126 98.8867 131.692C98.5527 131.492 98.1854 131.325 97.7846 131.291C97.3838 131.224 96.983 131.258 96.6157 131.325C95.8475 131.492 95.1795 131.993 94.879 132.627Z" fill="#768895"/>
<path d="M62.4828 133.095C62.4828 133.963 62.2156 134.831 61.6813 135.566C60.8129 136.802 59.4102 137.47 58.0075 137.47H42.7446C40.3065 137.47 38.336 135.499 38.336 133.061H62.4828V133.095Z" fill="#B7E0C8"/>
<path d="M48.5892 134.297C45.9515 134.297 43.8133 132.159 43.8133 129.521C43.8133 126.884 45.9515 124.745 48.5892 124.745C51.2269 124.745 53.3651 126.884 53.3651 129.521C53.3651 132.159 51.2269 134.297 48.5892 134.297Z" fill="#B7E0C8"/>
<path d="M53.4654 128.519C53.432 127.484 52.9644 126.482 52.1963 125.714C51.4615 124.946 50.4596 124.445 49.3908 124.278C48.3221 124.111 47.22 124.344 46.3182 124.879C45.4165 125.413 44.7151 126.248 44.4145 127.183C45.0491 126.415 45.8172 125.847 46.6522 125.513C47.4871 125.179 48.3889 125.079 49.2572 125.246C50.1256 125.38 50.9271 125.747 51.5951 126.348C52.2631 126.916 52.7974 127.684 53.1314 128.553C53.1648 128.653 53.265 128.686 53.3652 128.653C53.3986 128.686 53.4654 128.619 53.4654 128.519Z" fill="#768895"/>
<path d="M47.1197 133.095C47.1197 135.533 45.1492 137.503 42.7111 137.503C40.2731 137.503 38.3026 135.533 38.3026 133.095C38.3026 130.657 40.2731 128.686 42.7111 128.686C45.1492 128.72 47.1197 130.69 47.1197 133.095Z" fill="#B7E0C8"/>
<path d="M46.9527 134.364C47.5205 133.228 47.4537 131.725 46.7857 130.523C46.4518 129.922 45.9842 129.388 45.383 129.02C44.8153 128.619 44.1473 128.386 43.4459 128.252C42.0766 128.052 40.5737 128.486 39.6052 129.488C38.6032 130.423 38.1023 131.859 38.3361 133.095C38.5364 131.826 39.2044 130.757 40.1061 130.056C41.0079 129.354 42.1768 129.087 43.279 129.221C43.8467 129.287 44.3811 129.488 44.8487 129.788C45.3496 130.056 45.7504 130.456 46.0844 130.924C46.7857 131.892 47.1197 133.095 46.9527 134.364Z" fill="#768895"/>
<path d="M53.2983 137.503C50.8082 137.503 48.7896 135.5 48.7896 133.028C48.7896 130.556 50.8082 128.553 53.2983 128.553C55.7884 128.553 57.8071 130.556 57.8071 133.028C57.8071 135.5 55.7884 137.503 53.2983 137.503Z" fill="#B7E0C8"/>
<path d="M57.6067 134.297C58.1745 133.128 58.1077 131.592 57.4063 130.389C57.0724 129.788 56.5714 129.254 56.0036 128.853C55.4025 128.452 54.7345 128.185 54.0331 128.085C52.6304 127.885 51.1275 128.352 50.1256 129.321C49.1236 130.289 48.5892 131.725 48.823 133.028C49.0234 131.725 49.6914 130.657 50.6265 129.922C51.5617 129.187 52.764 128.92 53.8995 129.087C54.4673 129.154 55.0017 129.354 55.5026 129.655C56.0036 129.955 56.4378 130.356 56.7718 130.824C57.4397 131.759 57.7737 133.028 57.6067 134.297Z" fill="#768895"/>
<path d="M62.4828 133.095C62.4828 133.963 62.2156 134.831 61.6812 135.566C60.8129 136.802 59.4102 137.47 58.0075 137.47C57.1057 137.47 56.2374 137.203 55.4358 136.668C54.2001 135.8 53.5321 134.464 53.4987 133.095C53.4653 132.16 53.7325 131.224 54.3003 130.423C55.703 128.386 58.5084 127.885 60.5457 129.321C61.8482 130.223 62.5162 131.659 62.4828 133.095Z" fill="#B7E0C8"/>
<path d="M62.3492 134.097C62.8836 132.894 62.7166 131.391 61.9818 130.189C61.6145 129.588 61.0801 129.087 60.4789 128.72C59.8778 128.352 59.1764 128.118 58.475 128.052C57.0389 127.918 55.5694 128.452 54.6343 129.488C53.6657 130.49 53.2316 131.959 53.5321 133.228C53.6657 131.926 54.3003 130.79 55.202 130.056C56.1038 129.287 57.2727 128.953 58.4083 129.054C58.976 129.087 59.5438 129.287 60.0448 129.555C60.5457 129.822 61.0133 130.223 61.3807 130.657C62.082 131.558 62.4828 132.794 62.3492 134.097Z" fill="#768895"/>
<path d="M47.821 137.503C46.2163 137.503 44.9154 136.202 44.9154 134.598C44.9154 132.993 46.2163 131.692 47.821 131.692C49.4257 131.692 50.7266 132.993 50.7266 134.598C50.7266 136.202 49.4257 137.503 47.821 137.503Z" fill="#B7E0C8"/>
<path d="M49.9918 132.627C49.6912 131.993 49.0567 131.492 48.2885 131.291C47.9211 131.191 47.5204 131.191 47.1196 131.258C46.7188 131.325 46.3514 131.458 46.0174 131.659C45.3495 132.059 44.8485 132.761 44.6815 133.529C44.5145 134.297 44.6481 135.099 45.1157 135.633C45.0489 134.932 45.1825 134.297 45.4497 133.763C45.6835 133.228 46.1176 132.794 46.5852 132.494C47.0528 132.193 47.6205 132.059 48.2217 132.059C48.7561 132.093 49.3572 132.26 49.9918 132.627Z" fill="#768895"/>
<path d="M104.993 137.303C104.993 137.789 104.599 138.183 104.113 138.183H40.0281C39.542 138.183 39.1479 137.789 39.1479 137.303V137.303C39.1479 136.817 39.542 136.423 40.0281 136.423H104.113C104.599 136.423 104.993 136.817 104.993 137.303V137.303Z" fill="#768895"/>
<path fill-rule="evenodd" clip-rule="evenodd" d="M76.7534 65.0963H64.463V120.27H76.7534V65.0963ZM75.0835 66.7662V118.6H66.1329V66.7662H75.0835Z" fill="#768895"/>
<path d="M65.9992 66.2653L75.217 71.5756L65.9992 66.2653Z" fill="white"/>
<path fill-rule="evenodd" clip-rule="evenodd" d="M65.4204 65.9319C65.2363 66.2515 65.3461 66.6599 65.6658 66.8441L74.8836 72.1544C75.2033 72.3385 75.6117 72.2287 75.7959 71.909C75.98 71.5894 75.8702 71.181 75.5505 70.9968L66.3326 65.6865C66.013 65.5024 65.6046 65.6122 65.4204 65.9319Z" fill="#768895"/>
<path d="M65.9991 76.7857L72.3113 73.1119L65.9991 76.7857Z" fill="white"/>
<path fill-rule="evenodd" clip-rule="evenodd" d="M72.8887 72.7759C72.7032 72.457 72.2943 72.349 71.9754 72.5346L65.6632 76.2083C65.3444 76.3939 65.2363 76.8028 65.4219 77.1216C65.6075 77.4405 66.0164 77.5485 66.3352 77.3629L72.6474 73.6892C72.9663 73.5036 73.0743 73.0947 72.8887 72.7759Z" fill="#768895"/>
<path d="M65.9992 76.8859L75.217 82.2295L65.9992 76.8859Z" fill="white"/>
<path fill-rule="evenodd" clip-rule="evenodd" d="M65.4213 76.5509C65.2363 76.8701 65.3451 77.2788 65.6642 77.4638L74.8821 82.8075C75.2012 82.9925 75.6099 82.8837 75.7949 82.5646C75.98 82.2454 75.8712 81.8367 75.5521 81.6517L66.3342 76.308C66.0151 76.123 65.6063 76.2317 65.4213 76.5509Z" fill="#768895"/>
<path d="M65.9991 87.4063L72.3113 83.7659L65.9991 87.4063Z" fill="white"/>
<path fill-rule="evenodd" clip-rule="evenodd" d="M72.8901 83.4321C72.7058 83.1126 72.2973 83.0029 71.9777 83.1872L65.6655 86.8276C65.3459 87.0119 65.2363 87.4204 65.4206 87.7399C65.6049 88.0595 66.0134 88.1692 66.3329 87.9849L72.6451 84.3445C72.9647 84.1602 73.0744 83.7517 72.8901 83.4321Z" fill="#768895"/>
<path d="M65.9992 87.5398L75.217 92.8501L65.9992 87.5398Z" fill="white"/>
<path fill-rule="evenodd" clip-rule="evenodd" d="M65.4204 87.2064C65.2363 87.5261 65.3461 87.9345 65.6658 88.1187L74.8836 93.4289C75.2033 93.6131 75.6117 93.5032 75.7959 93.1836C75.98 92.8639 75.8702 92.4555 75.5505 92.2714L66.3326 86.9611C66.013 86.7769 65.6046 86.8868 65.4204 87.2064Z" fill="#768895"/>
<path d="M65.9991 98.0602L72.3113 94.3864L65.9991 98.0602Z" fill="white"/>
<path fill-rule="evenodd" clip-rule="evenodd" d="M72.8887 94.0505C72.7032 93.7316 72.2943 93.6236 71.9754 93.8092L65.6632 97.4829C65.3444 97.6685 65.2363 98.0774 65.4219 98.3962C65.6075 98.7151 66.0164 98.8231 66.3352 98.6375L72.6474 94.9638C72.9663 94.7782 73.0743 94.3693 72.8887 94.0505Z" fill="#768895"/>
<path d="M65.9992 98.1604L75.217 103.504L65.9992 98.1604Z" fill="white"/>
<path fill-rule="evenodd" clip-rule="evenodd" d="M65.4213 97.8254C65.2363 98.1445 65.3451 98.5532 65.6642 98.7383L74.8821 104.082C75.2012 104.267 75.6099 104.158 75.7949 103.839C75.98 103.52 75.8712 103.111 75.5521 102.926L66.3342 97.5825C66.0151 97.3975 65.6063 97.5062 65.4213 97.8254Z" fill="#768895"/>
<path d="M65.9991 108.681L72.3113 105.007L65.9991 108.681Z" fill="white"/>
<path fill-rule="evenodd" clip-rule="evenodd" d="M72.8887 104.671C72.7032 104.352 72.2943 104.244 71.9754 104.43L65.6632 108.103C65.3444 108.289 65.2363 108.698 65.4219 109.017C65.6075 109.336 66.0164 109.444 66.3352 109.258L72.6474 105.584C72.9663 105.399 73.0743 104.99 72.8887 104.671Z" fill="#768895"/>
<path d="M65.9992 108.814L75.217 114.125L65.9992 108.814Z" fill="white"/>
<path fill-rule="evenodd" clip-rule="evenodd" d="M65.4204 108.481C65.2363 108.801 65.3461 109.209 65.6658 109.393L74.8836 114.703C75.2033 114.888 75.6117 114.778 75.7959 114.458C75.98 114.138 75.8702 113.73 75.5505 113.546L66.3326 108.236C66.013 108.051 65.6046 108.161 65.4204 108.481Z" fill="#768895"/>
<path d="M65.9991 119.301L72.3113 115.661L65.9991 119.301Z" fill="white"/>
<path fill-rule="evenodd" clip-rule="evenodd" d="M72.8901 115.327C72.7058 115.008 72.2973 114.898 71.9777 115.082L65.6655 118.723C65.3459 118.907 65.2363 119.315 65.4206 119.635C65.6049 119.955 66.0134 120.064 66.3329 119.88L72.6451 116.24C72.9647 116.055 73.0744 115.647 72.8901 115.327Z" fill="#768895"/>
<path d="M53.4749 140.042H87.7079C88.6431 140.042 89.3778 139.307 89.3778 138.372V121.105C89.3778 120.17 88.6431 119.435 87.7079 119.435H53.4749C52.5398 119.435 51.805 120.17 51.805 121.105V138.372C51.805 139.273 52.5732 140.042 53.4749 140.042Z" fill="white"/>
<path d="M85.103 123.109H56.0801V127.35H85.103V123.109Z" fill="#C4E6F5"/>
<path d="M79.8929 131.024H61.3236V140.042H79.8929V131.024Z" fill="#A9BBC8"/>
<path fill-rule="evenodd" clip-rule="evenodd" d="M80.5608 131.024C80.5608 130.655 80.2618 130.356 79.8929 130.356H61.3236C60.9547 130.356 60.6556 130.655 60.6556 131.024V140.042C60.6556 140.41 60.9547 140.71 61.3236 140.71H79.8929C80.2618 140.71 80.5608 140.41 80.5608 140.042V131.024ZM79.2249 131.692V139.374H61.9915V131.692H79.2249Z" fill="#768895"/>
<path fill-rule="evenodd" clip-rule="evenodd" d="M68.4864 140.858C63.4826 140.792 58.4788 140.725 53.475 140.743C52.64 140.743 51.8051 140.275 51.3709 139.574C51.1705 139.207 51.0703 138.772 51.0703 138.372V137.47L51.0369 133.93L50.9033 126.849L50.8365 123.309L50.8031 121.539V121.305V121.038C50.8365 120.804 50.8699 120.57 50.9367 120.337C51.1037 119.903 51.3375 119.468 51.7049 119.168C52.0389 118.867 52.473 118.633 52.9406 118.533C52.9871 118.533 53.0336 118.526 53.0834 118.518C53.141 118.509 53.203 118.5 53.2746 118.5H53.4416H53.5418H53.9759H55.746H59.2862C63.487 118.515 67.6877 118.556 71.8884 118.597C77.1393 118.649 82.3902 118.7 87.6412 118.7C88.5429 118.7 89.3779 119.201 89.812 119.969C90.0124 120.337 90.1126 120.804 90.1126 121.205V122.107V125.647L90.1794 132.727L90.2128 136.268V138.038V138.271V138.539C90.2128 138.772 90.1794 138.973 90.1126 139.207C89.979 139.641 89.7118 140.042 89.3779 140.342C89.0439 140.643 88.6097 140.843 88.1755 140.943C88.1254 140.943 88.067 140.952 88.0085 140.96C87.9501 140.968 87.8916 140.977 87.8415 140.977H87.6746H87.5744H87.1402H85.3701H81.8299C77.3821 140.977 72.9342 140.918 68.4864 140.858ZM52.64 138.806C52.807 139.106 53.141 139.307 53.475 139.307C58.5158 139.325 63.5567 139.266 68.5976 139.208C73.0084 139.157 77.4191 139.106 81.8299 139.106H85.3701H87.1402H87.5744H87.6746H87.7414H87.8415C87.8537 139.102 87.8664 139.098 87.8794 139.094C87.9737 139.064 88.0875 139.027 88.1755 138.939C88.2757 138.839 88.3759 138.739 88.4093 138.605C88.4093 138.572 88.4177 138.539 88.426 138.505C88.4344 138.472 88.4427 138.438 88.4427 138.405V138.205V137.971V136.201L88.4761 132.661L88.5429 125.58V122.04V121.138C88.5429 120.938 88.5095 120.804 88.4427 120.671C88.2757 120.404 87.9751 120.237 87.6746 120.237C82.4236 120.237 77.1727 120.288 71.9218 120.34C67.7211 120.381 63.5204 120.422 59.3196 120.437H55.7794H54.0093H53.5752H53.475H53.4416H53.3414C53.2412 120.47 53.141 120.537 53.0408 120.604C52.9406 120.671 52.8738 120.804 52.8404 120.904C52.8404 120.918 52.8347 120.938 52.828 120.961C52.8185 120.993 52.807 121.032 52.807 121.071V121.238V121.472L52.7736 123.242L52.7068 126.783L52.5732 133.863L52.5398 137.403V138.305C52.5097 138.486 52.5613 138.612 52.6208 138.758C52.6271 138.774 52.6336 138.79 52.64 138.806Z" fill="#768895"/>
<path fill-rule="evenodd" clip-rule="evenodd" d="M70.6083 130.356C70.2394 130.356 69.9403 130.655 69.9403 131.024V140.042C69.9403 140.41 70.2394 140.71 70.6083 140.71C70.9772 140.71 71.2763 140.41 71.2763 140.042V131.024C71.2763 130.655 70.9772 130.356 70.6083 130.356Z" fill="#768895"/>
<path fill-rule="evenodd" clip-rule="evenodd" d="M85.604 123.109C85.604 122.832 85.3797 122.608 85.103 122.608H56.0801C55.8034 122.608 55.5791 122.832 55.5791 123.109V127.35C55.5791 127.627 55.8034 127.851 56.0801 127.851H85.103C85.3797 127.851 85.604 127.627 85.604 127.35V123.109ZM84.602 123.61V126.849H56.5811V123.61H84.602Z" fill="#768895"/>
<path d="M75.979 86.1371L102.373 86.1037V74.7817L75.979 74.8151V86.1371Z" fill="#C4E6F5"/>
<path d="M101.972 74.5146L97.5638 80.092L93.6165 85.1158L89.6151 80.1588L85.1063 74.6148C84.9059 74.3476 84.5052 74.3142 84.238 74.5146L84.1378 74.6148L75.5879 85.5693L75.5211 86.2707C75.7215 86.5045 76.0555 86.5713 76.3226 86.3709L76.4228 86.2707L84.5618 75.9865L88.5797 80.927L93.0884 86.4711C93.2888 86.7382 93.6562 86.7716 93.9234 86.5713L94.0236 86.4711L98.3653 80.8268L102.674 75.1491L101.972 74.5146Z" fill="#768895"/>
<path fill-rule="evenodd" clip-rule="evenodd" d="M103.041 74.1134L75.5468 74.1475V86.7712H103.041V74.1134ZM101.705 75.45V85.436L76.6825 85.4687L76.8593 75.4827L101.705 75.45Z" fill="#768895"/>
<path opacity="0.3" fill-rule="evenodd" clip-rule="evenodd" d="M149.372 110.121C149.372 107.453 147.968 103.88 147.968 103.88L149.606 100.353H153.118C153.118 100.353 154.055 99.1324 155.272 96.9166C157.005 96.2836 163.092 94.9722 167.775 103.609V102.886C167.728 100.127 167.494 95.1079 165.012 88.2797C164.965 88.2345 164.965 88.2345 164.965 88.1893C164.029 85.6118 162.53 82.0394 160.798 78.9645C160.813 78.6997 160.833 78.4349 160.853 78.1686C160.862 78.0523 160.871 77.9358 160.88 77.8189C160.962 77.3961 160.961 75.2402 160.938 76.4774C160.938 76.9351 160.912 77.38 160.88 77.8189C160.794 78.2614 160.618 76.8049 160.283 67.5692C159.734 52.447 149.971 45.0908 146.811 43.0983C146.196 42.7105 145.441 42.6517 144.773 42.9477C141.282 44.496 130.361 50.6887 130.361 67.5692C130.361 82.6048 130.151 77.0865 130.026 73.7929C129.984 72.6854 129.952 71.8294 129.94 72.0911C129.752 75.3017 130.221 78.8288 131.017 82.2655C130.502 80.095 130.314 78.7384 130.314 78.7384C123.385 91.0138 123.157 99.7714 123.062 103.394C123.06 103.468 123.058 103.54 123.056 103.609C123.618 102.524 124.227 101.574 124.836 100.806C127.739 97.0523 130.923 96.3288 133.124 96.4192C133.88 96.4192 135.202 96.7106 135.77 96.8357C135.835 96.85 135.89 96.8621 135.933 96.8714C136.87 99.042 137.525 100.399 137.525 100.399L140.756 100.353L142.536 103.88C142.536 103.88 141.037 107.453 141.037 110.121C141.037 111.975 141.927 114.462 142.91 116.632C142.544 121.353 141.42 128.096 138.133 133.958H152.014C150.408 129.738 148.916 123.85 147.921 115.638C148.717 113.738 149.372 111.703 149.372 110.121Z" fill="#A9BBC8"/>
<path d="M127.29 124.264C129.776 124.264 131.792 122.248 131.792 119.762C131.792 117.275 129.776 115.259 127.29 115.259C124.803 115.259 122.787 117.275 122.787 119.762C122.787 122.248 124.803 124.264 127.29 124.264Z" fill="white"/>
<path d="M131.536 118.898C131.209 118.058 130.719 117.359 130.089 116.822C129.459 116.285 128.69 115.935 127.873 115.795C127.056 115.655 126.216 115.749 125.423 116.052C124.63 116.355 123.907 116.892 123.324 117.615C123.627 116.729 124.28 115.935 125.12 115.445C125.96 114.932 127.01 114.722 128.013 114.886C129.016 115.026 129.973 115.492 130.649 116.215C131.349 116.939 131.792 117.895 131.839 118.852C131.839 118.945 131.769 119.015 131.676 119.015C131.629 119.015 131.559 118.968 131.536 118.898Z" fill="#768895"/>
<path d="M134.405 126.364C137.343 126.364 139.725 123.983 139.725 121.045C139.725 118.107 137.343 115.725 134.405 115.725C131.468 115.725 129.086 118.107 129.086 121.045C129.086 123.983 131.468 126.364 134.405 126.364Z" fill="white"/>
<path d="M129.039 119.948C129.133 118.828 129.646 117.732 130.463 116.892C131.279 116.052 132.376 115.492 133.542 115.329C134.709 115.165 135.922 115.399 136.902 115.959C137.905 116.519 138.675 117.429 139.048 118.455C138.372 117.592 137.532 116.939 136.599 116.565C135.665 116.192 134.639 116.075 133.682 116.239C132.726 116.402 131.792 116.822 131.046 117.475C130.299 118.128 129.716 118.992 129.366 119.995C129.343 120.088 129.249 120.112 129.156 120.088C129.063 120.088 129.039 120.018 129.039 119.948Z" fill="#768895"/>
<path d="M144.508 126.971C147.252 126.971 149.477 124.746 149.477 122.001C149.477 119.257 147.252 117.032 144.508 117.032C141.763 117.032 139.538 119.257 139.538 122.001C139.538 124.746 141.763 126.971 144.508 126.971Z" fill="white"/>
<path d="M149.22 121.021C148.87 120.088 148.334 119.295 147.634 118.688C146.934 118.082 146.071 117.685 145.184 117.545C144.274 117.382 143.341 117.499 142.454 117.848C141.568 118.198 140.798 118.805 140.145 119.598C140.471 118.642 141.218 117.778 142.151 117.242C143.084 116.705 144.228 116.472 145.324 116.635C146.421 116.799 147.471 117.312 148.217 118.105C148.987 118.898 149.477 119.925 149.524 120.975C149.524 121.068 149.454 121.138 149.384 121.138C149.314 121.138 149.244 121.091 149.22 121.021Z" fill="#768895"/>
<path d="M139.161 105.67C139.161 105.67 139.931 117.078 133.072 121.931C126.352 126.714 142.847 128.067 142.847 128.067L147.723 123.214C147.723 123.214 142.684 122.468 141.284 105.437L139.161 105.67Z" fill="white"/>
<path d="M141.634 106.603C141.937 107.886 142.194 109.193 142.45 110.453C142.59 111.083 142.707 111.736 142.847 112.366C142.917 112.669 142.964 112.996 143.057 113.322L143.29 114.256C143.36 114.582 143.454 114.886 143.524 115.189C143.57 115.352 143.594 115.492 143.64 115.655C143.687 115.819 143.734 115.959 143.78 116.122C143.874 116.425 143.944 116.752 144.037 117.055C144.154 117.359 144.247 117.662 144.317 117.988C144.737 119.202 145.227 120.391 145.81 121.628C145.81 121.651 145.81 121.675 145.787 121.698C145.763 121.698 145.74 121.698 145.74 121.675L145.133 120.881L144.993 120.671C144.947 120.601 144.9 120.531 144.853 120.461L144.597 120.042L144.34 119.622C144.247 119.482 144.2 119.318 144.107 119.178C143.967 118.875 143.804 118.595 143.664 118.292C143.127 117.079 142.707 115.795 142.357 114.512C142.03 113.229 141.797 111.923 141.611 110.593C141.424 109.286 141.307 107.956 141.284 106.627C141.284 106.533 141.354 106.463 141.447 106.463C141.517 106.463 141.587 106.51 141.611 106.58L141.634 106.603Z" fill="#768895"/>
<path d="M168.761 129.188L146.943 129.188L146.943 125.412L168.761 125.412L168.761 129.188Z" fill="white"/>
<path d="M164.548 129.164C166.79 129.164 168.608 127.346 168.608 125.104C168.608 122.862 166.79 121.045 164.548 121.045C162.306 121.045 160.489 122.862 160.489 125.104C160.489 127.346 162.306 129.164 164.548 129.164Z" fill="white"/>
<path d="M159.229 126.364C162.167 126.364 164.548 123.983 164.548 121.045C164.548 118.107 162.167 115.725 159.229 115.725C156.291 115.725 153.91 118.107 153.91 121.045C153.91 123.983 156.291 126.364 159.229 126.364Z" fill="white"/>
<path d="M168.421 126.317C168.491 125.874 168.515 125.431 168.445 125.011C168.398 124.591 168.281 124.171 168.095 123.798C167.745 123.028 167.185 122.398 166.485 122.001C166.135 121.791 165.785 121.605 165.388 121.441C164.992 121.278 164.572 121.208 164.152 121.231C163.289 121.255 162.425 121.581 161.749 122.165C162.379 121.535 163.195 121.068 164.128 120.928C164.362 120.881 164.595 120.881 164.828 120.881C164.945 120.881 165.062 120.881 165.178 120.881C165.295 120.881 165.412 120.881 165.528 120.905C166.018 120.951 166.485 121.091 166.881 121.371C167.278 121.651 167.651 121.978 167.931 122.351C168.211 122.748 168.445 123.168 168.585 123.634C168.725 124.078 168.771 124.568 168.748 125.034C168.748 125.454 168.631 125.897 168.421 126.317Z" fill="#768895"/>
<path d="M164.268 120.018C163.918 119.015 163.335 118.175 162.589 117.499C161.842 116.845 160.909 116.425 159.952 116.262C158.972 116.099 157.969 116.215 157.036 116.589C156.103 116.962 155.263 117.639 154.586 118.478C154.96 117.452 155.729 116.542 156.733 115.982C157.736 115.422 158.949 115.165 160.092 115.352C161.259 115.515 162.355 116.075 163.172 116.915C163.988 117.755 164.502 118.852 164.595 119.972C164.595 120.065 164.525 120.135 164.455 120.135C164.362 120.112 164.292 120.088 164.268 120.018Z" fill="#768895"/>
<path d="M152.72 128.464C155.413 128.464 157.596 126.281 157.596 123.588C157.596 120.895 155.413 118.712 152.72 118.712C150.027 118.712 147.844 120.895 147.844 123.588C147.844 126.281 150.027 128.464 152.72 128.464Z" fill="white"/>
<path d="M157.409 124.988C157.619 123.588 157.293 122.211 156.546 121.161C155.799 120.112 154.633 119.388 153.373 119.225C152.113 119.038 150.807 119.365 149.78 120.182C148.754 120.975 148.03 122.188 147.844 123.588C147.75 122.888 147.844 122.141 148.077 121.465C148.334 120.788 148.754 120.135 149.29 119.622C150.363 118.572 151.973 118.082 153.49 118.315C155.006 118.525 156.406 119.458 157.129 120.788C157.899 122.071 158.016 123.704 157.409 124.988Z" fill="#768895"/>
<path d="M146.771 129.164C148.523 129.164 149.944 127.743 149.944 125.991C149.944 124.238 148.523 122.818 146.771 122.818C145.018 122.818 143.598 124.238 143.598 125.991C143.598 127.743 145.018 129.164 146.771 129.164Z" fill="white"/>
<path d="M149.127 123.891C148.52 123.448 147.844 123.191 147.167 123.168C146.841 123.144 146.491 123.191 146.187 123.261C145.861 123.331 145.581 123.471 145.301 123.634C144.764 123.984 144.298 124.474 144.041 125.104C143.784 125.711 143.691 126.434 143.808 127.181C143.598 126.877 143.458 126.504 143.411 126.107C143.364 125.711 143.364 125.314 143.481 124.918C143.668 124.124 144.204 123.424 144.904 122.981C145.254 122.771 145.651 122.608 146.047 122.538C146.257 122.515 146.444 122.491 146.654 122.491C146.864 122.491 147.051 122.515 147.261 122.561C148.054 122.725 148.754 123.214 149.127 123.891Z" fill="#768895"/>
<path d="M164.549 120.648C164.626 120.648 164.689 120.586 164.689 120.508C164.689 120.431 164.626 120.368 164.549 120.368C164.471 120.368 164.408 120.431 164.408 120.508C164.408 120.586 164.471 120.648 164.549 120.648Z" fill="#768895"/>
<path d="M164.455 128.464C167.213 128.464 169.448 126.229 169.448 123.471C169.448 120.714 167.213 118.478 164.455 118.478C161.698 118.478 159.462 120.714 159.462 123.471C159.462 126.229 161.698 128.464 164.455 128.464Z" fill="white"/>
<path d="M169.238 124.917C169.471 123.494 169.121 122.095 168.351 120.998C167.581 119.925 166.392 119.202 165.108 119.015C163.825 118.828 162.472 119.155 161.422 119.995C160.372 120.811 159.649 122.048 159.462 123.494C159.369 122.771 159.462 122.025 159.719 121.325C159.976 120.625 160.396 119.971 160.956 119.458C162.052 118.385 163.709 117.895 165.248 118.128C166.788 118.338 168.211 119.295 168.958 120.648C169.728 121.931 169.844 123.588 169.238 124.917Z" fill="#768895"/>
<path d="M172.997 127.112C174.522 124.927 173.926 121.876 171.665 120.298C169.405 118.719 166.335 119.211 164.81 121.396C163.284 123.581 163.88 126.632 166.141 128.21C168.402 129.789 171.471 129.297 172.997 127.112Z" fill="white"/>
<path d="M171.751 128.397C172.754 127.371 173.291 126.017 173.267 124.688C173.267 123.358 172.684 122.075 171.751 121.211C170.818 120.325 169.511 119.835 168.181 119.905C166.852 119.975 165.545 120.581 164.565 121.631C164.892 120.978 165.405 120.418 166.012 119.998C166.618 119.578 167.342 119.275 168.111 119.182C169.628 118.925 171.261 119.462 172.404 120.535C173.547 121.608 174.177 123.194 174.014 124.734C173.874 126.251 172.987 127.674 171.751 128.397Z" fill="#768895"/>
<path d="M158.366 129.164C160.157 129.164 161.609 127.712 161.609 125.921C161.609 124.13 160.157 122.678 158.366 122.678C156.575 122.678 155.123 124.13 155.123 125.921C155.123 127.712 156.575 129.164 158.366 129.164Z" fill="white"/>
<path d="M160.769 123.774C160.116 123.354 159.439 123.121 158.762 123.098C158.436 123.074 158.086 123.121 157.783 123.191C157.479 123.284 157.176 123.401 156.896 123.564C156.359 123.914 155.893 124.404 155.636 125.011C155.356 125.617 155.24 126.341 155.356 127.111C155.123 126.807 154.983 126.411 154.913 126.014C154.843 125.617 154.866 125.197 154.96 124.778C155.146 123.961 155.706 123.214 156.429 122.771C156.803 122.538 157.199 122.398 157.619 122.328C157.829 122.304 158.039 122.281 158.249 122.281C158.459 122.281 158.669 122.304 158.879 122.351C159.696 122.538 160.419 123.074 160.769 123.774Z" fill="#768895"/>
<path d="M115.18 125.774C117.273 124.87 118.237 122.439 117.333 120.345C116.428 118.252 113.998 117.288 111.904 118.192C109.811 119.097 108.847 121.527 109.751 123.621C110.656 125.715 113.086 126.679 115.18 125.774Z" fill="white"/>
<path d="M110.398 124.675C109.465 123.905 108.975 122.575 109.115 121.292C109.232 120.008 110.025 118.772 111.145 118.095C112.265 117.395 113.711 117.232 114.925 117.722C115.531 117.955 116.068 118.329 116.488 118.772C116.908 119.239 117.234 119.775 117.374 120.382C116.721 119.379 115.764 118.679 114.715 118.422C113.665 118.142 112.545 118.352 111.658 118.889C110.772 119.425 110.095 120.358 109.862 121.408C109.582 122.458 109.769 123.648 110.398 124.675Z" fill="#768895"/>
<path d="M118.611 126.644C120.093 126.644 121.294 125.443 121.294 123.961C121.294 122.479 120.093 121.278 118.611 121.278C117.129 121.278 115.928 122.479 115.928 123.961C115.928 125.443 117.129 126.644 118.611 126.644Z" fill="white"/>
<path d="M116.604 122.165C116.931 121.605 117.514 121.185 118.191 121.045C118.354 120.998 118.541 120.975 118.704 120.975C118.867 120.975 119.054 120.998 119.217 121.021C119.567 121.091 119.894 121.208 120.197 121.395C120.781 121.768 121.247 122.351 121.41 123.028C121.574 123.681 121.48 124.404 121.13 124.941C121.224 124.311 121.154 123.704 120.944 123.191C120.711 122.678 120.337 122.235 119.871 121.955C119.637 121.815 119.381 121.698 119.124 121.628C118.844 121.558 118.564 121.535 118.284 121.558C117.701 121.581 117.141 121.815 116.604 122.165Z" fill="#768895"/>
<path d="M131.785 126.66L116.714 126.66L116.714 123.417L131.785 123.417L131.785 126.66Z" fill="white"/>
<path d="M131.792 126.667C133.699 126.667 135.245 125.121 135.245 123.214C135.245 121.307 133.699 119.762 131.792 119.762C129.885 119.762 128.34 121.307 128.34 123.214C128.34 125.121 129.885 126.667 131.792 126.667Z" fill="white"/>
<path d="M121.784 126.061C124.064 126.061 125.913 124.212 125.913 121.931C125.913 119.651 124.064 117.802 121.784 117.802C119.503 117.802 117.654 119.651 117.654 121.931C117.654 124.212 119.503 126.061 121.784 126.061Z" fill="white"/>
<path d="M125.75 123.121C125.913 121.931 125.61 120.788 124.957 119.901C124.327 119.015 123.347 118.455 122.32 118.292C121.271 118.152 120.174 118.408 119.334 119.062C118.471 119.715 117.864 120.718 117.654 121.908C117.561 121.325 117.631 120.695 117.818 120.088C118.028 119.505 118.378 118.945 118.844 118.502C119.754 117.592 121.154 117.172 122.46 117.358C123.767 117.545 124.957 118.362 125.587 119.505C126.217 120.625 126.287 122.048 125.75 123.121Z" fill="#768895"/>
<path d="M116.721 126.644C118.203 126.644 119.404 125.443 119.404 123.961C119.404 122.479 118.203 121.278 116.721 121.278C115.239 121.278 114.038 122.479 114.038 123.961C114.038 125.443 115.239 126.644 116.721 126.644Z" fill="white"/>
<path d="M118.727 122.165C118.168 121.838 117.608 121.675 117.048 121.651C116.768 121.651 116.511 121.675 116.254 121.745C115.998 121.815 115.764 121.908 115.555 122.048C115.111 122.328 114.738 122.701 114.528 123.214C114.295 123.704 114.178 124.288 114.225 124.941C114.015 124.684 113.875 124.381 113.805 124.031C113.735 123.704 113.735 123.331 113.828 122.981C113.991 122.281 114.458 121.651 115.065 121.255C115.368 121.068 115.718 120.928 116.091 120.881C116.278 120.858 116.441 120.835 116.628 120.858C116.814 120.858 116.978 120.881 117.164 120.928C117.841 121.115 118.447 121.581 118.727 122.165Z" fill="#768895"/>
<path d="M129.086 129.164C131.328 129.164 133.146 127.346 133.146 125.104C133.146 122.862 131.328 121.045 129.086 121.045C126.844 121.045 125.027 122.862 125.027 125.104C125.027 127.346 126.844 129.164 129.086 129.164Z" fill="white"/>
<path d="M110.397 125.513H149.38V129.174H110.397V125.513Z" fill="white"/>
<path d="M125.19 126.401C124.98 126.004 124.863 125.538 124.817 125.071C124.77 124.605 124.817 124.115 124.957 123.671C125.097 123.205 125.307 122.761 125.587 122.365C125.89 121.968 126.24 121.642 126.66 121.362C127.08 121.082 127.57 120.942 128.06 120.895C128.176 120.872 128.293 120.895 128.433 120.895C128.55 120.895 128.666 120.895 128.783 120.895C129.016 120.895 129.249 120.918 129.483 120.965C130.416 121.128 131.233 121.595 131.862 122.225C131.186 121.642 130.299 121.338 129.459 121.315C129.039 121.315 128.62 121.385 128.223 121.572C127.85 121.735 127.5 121.945 127.173 122.132C126.496 122.528 125.913 123.135 125.563 123.881C125.4 124.255 125.26 124.651 125.213 125.071C125.143 125.514 125.143 125.958 125.19 126.401Z" fill="#768895"/>
<path d="M140.891 128.464C143.584 128.464 145.768 126.281 145.768 123.588C145.768 120.895 143.584 118.712 140.891 118.712C138.198 118.712 136.015 120.895 136.015 123.588C136.015 126.281 138.198 128.464 140.891 128.464Z" fill="white"/>
<path d="M136.225 124.988C135.619 123.704 135.735 122.071 136.482 120.765C137.205 119.435 138.605 118.502 140.121 118.292C141.638 118.058 143.248 118.548 144.321 119.598C144.857 120.111 145.277 120.741 145.534 121.441C145.791 122.141 145.884 122.864 145.767 123.564C145.581 122.165 144.857 120.951 143.831 120.158C142.804 119.365 141.498 119.038 140.238 119.202C138.978 119.388 137.812 120.088 137.065 121.138C136.342 122.211 135.992 123.611 136.225 124.988Z" fill="#768895"/>
<path d="M146.864 129.164C148.616 129.164 150.037 127.743 150.037 125.991C150.037 124.238 148.616 122.818 146.864 122.818C145.112 122.818 143.691 124.238 143.691 125.991C143.691 127.743 145.112 129.164 146.864 129.164Z" fill="white"/>
<path d="M144.508 123.891C144.858 123.214 145.557 122.701 146.374 122.515C146.584 122.468 146.771 122.445 146.981 122.445C147.191 122.445 147.401 122.468 147.611 122.491C148.03 122.561 148.427 122.725 148.777 122.934C149.5 123.378 150.037 124.101 150.224 124.918C150.317 125.314 150.34 125.734 150.27 126.131C150.2 126.527 150.06 126.901 149.827 127.204C149.92 126.457 149.804 125.757 149.524 125.151C149.267 124.544 148.824 124.078 148.287 123.728C148.03 123.564 147.727 123.448 147.424 123.354C147.121 123.284 146.794 123.238 146.467 123.261C145.814 123.238 145.138 123.471 144.508 123.891Z" fill="#768895"/>
<path d="M112.113 128.812C114.24 127.893 115.231 125.451 114.327 123.357C113.422 121.264 110.965 120.311 108.837 121.23C106.71 122.149 105.719 124.592 106.624 126.685C107.528 128.779 109.986 129.731 112.113 128.812Z" fill="white"/>
<path d="M107.551 128.031C106.618 127.261 106.128 125.931 106.268 124.648C106.385 123.365 107.178 122.128 108.298 121.452C109.418 120.752 110.864 120.589 112.077 121.079C112.684 121.312 113.221 121.685 113.641 122.128C114.06 122.595 114.387 123.132 114.527 123.738C113.874 122.735 112.917 122.035 111.867 121.779C110.818 121.499 109.698 121.709 108.811 122.245C107.925 122.782 107.248 123.715 107.015 124.765C106.758 125.815 106.945 127.005 107.551 128.031Z" fill="#768895"/>
<path d="M138.811 112.062C138.624 112.879 138.414 113.696 138.134 114.489C137.878 115.282 137.574 116.075 137.178 116.822C136.804 117.568 136.338 118.292 135.825 118.968C135.311 119.645 134.751 120.275 134.308 120.975C134.705 120.228 135.218 119.528 135.638 118.828C136.081 118.128 136.454 117.382 136.758 116.612C137.061 115.842 137.294 115.072 137.458 114.256C137.644 113.462 137.761 112.646 137.878 111.829C137.924 111.573 138.158 111.386 138.414 111.433C138.671 111.479 138.857 111.713 138.811 111.969C138.811 111.992 138.811 111.992 138.811 112.016V112.062Z" fill="#768895"/>
<path d="M180.962 129.02H103.478C102.543 129.02 101.808 129.755 101.808 130.69V138.372C101.808 139.307 102.543 140.041 103.478 140.041H180.962C181.897 140.041 182.632 139.307 182.632 138.372V130.69C182.632 129.755 181.897 129.02 180.962 129.02Z" fill="#A9BBC8"/>
<path d="M119.843 139.269L161.825 139.203L172.312 139.17H177.555H180.194H180.862C180.895 139.17 180.995 139.17 180.995 139.17C181.028 139.17 181.062 139.17 181.095 139.17C181.162 139.17 181.195 139.137 181.262 139.137C181.463 139.07 181.663 138.905 181.763 138.707C181.83 138.607 181.83 138.508 181.863 138.376C181.863 138.343 181.863 138.343 181.863 138.276V138.111V137.78V136.49V133.875V131.261V130.93V130.765C181.863 130.699 181.863 130.666 181.863 130.633C181.863 130.533 181.83 130.401 181.797 130.302C181.696 130.103 181.529 129.938 181.329 129.872C181.262 129.839 181.229 129.839 181.162 129.839C181.129 129.839 181.095 129.839 181.062 129.839C181.029 129.839 180.995 129.839 180.962 129.839H180.294H178.991H176.353H171.109L129.128 129.905L108.154 129.938H105.516H104.213H103.545C103.411 129.938 103.345 129.971 103.278 130.004C103.111 130.07 102.977 130.202 102.911 130.368C102.877 130.434 102.844 130.533 102.844 130.633V131.261V133.875V136.49V137.78V138.111V138.276C102.844 138.309 102.844 138.309 102.844 138.343C102.844 138.442 102.877 138.508 102.911 138.607C103.011 138.773 103.144 138.872 103.311 138.938C103.345 138.938 103.411 138.971 103.445 138.971C103.478 138.971 103.478 138.971 103.512 138.971H103.679H104.347H106.985C107.553 138.971 107.987 139.401 107.987 139.964C107.987 140.526 107.553 140.957 106.985 140.957H104.347H103.679H103.512H103.244C103.078 140.924 102.911 140.89 102.744 140.857C102.076 140.659 101.508 140.196 101.174 139.567C101.007 139.269 100.907 138.938 100.873 138.574V138.309V138.144V137.813V136.523V133.909V131.294V130.633C100.873 130.302 100.94 129.938 101.074 129.64C101.341 129.011 101.875 128.482 102.51 128.25C102.81 128.118 103.178 128.052 103.512 128.052H104.18H105.482H108.121L129.095 128.085L171.076 128.151H176.319H178.958H180.26H180.928C180.962 128.151 181.062 128.151 181.129 128.151C181.195 128.151 181.296 128.151 181.362 128.184C181.529 128.217 181.696 128.25 181.83 128.316C182.431 128.548 182.966 129.011 183.233 129.607C183.366 129.905 183.433 130.236 183.467 130.533C183.467 130.633 183.467 130.666 183.467 130.732V130.897V131.228V133.842V136.456V137.747V138.078V138.243C183.467 138.276 183.467 138.409 183.467 138.475C183.433 138.806 183.366 139.104 183.199 139.401C182.899 139.964 182.398 140.427 181.763 140.626C181.596 140.659 181.463 140.725 181.296 140.725C181.229 140.725 181.129 140.725 181.062 140.725C180.962 140.725 180.928 140.725 180.895 140.725H180.227H177.589H172.345L161.858 140.692L119.877 140.626C119.509 140.626 119.209 140.328 119.209 139.964C119.209 139.6 119.476 139.269 119.843 139.269Z" fill="#768895"/>
<path d="M110.692 141.001C111.246 141.001 111.694 140.562 111.694 140.02C111.694 139.479 111.246 139.04 110.692 139.04C110.139 139.04 109.69 139.479 109.69 140.02C109.69 140.562 110.139 141.001 110.692 141.001Z" fill="#768895"/>
<path d="M135.229 107.589C135.229 103.294 137.204 99.7885 139.624 99.7885C142.043 99.7885 144.018 103.294 144.018 107.589C144.018 111.884 139.624 119.537 139.624 119.537C139.624 119.537 135.229 111.884 135.229 107.589Z" fill="#FFDDA3"/>
<path d="M137.402 107.49C137.402 105.367 138.389 103.59 139.623 103.59C140.858 103.59 141.845 105.318 141.845 107.49C141.845 109.663 139.623 113.464 139.623 113.464C139.623 113.464 137.402 109.613 137.402 107.49Z" fill="white"/>
<path fill-rule="evenodd" clip-rule="evenodd" d="M139.13 103.59C139.13 103.317 139.351 103.096 139.623 103.096C140.493 103.096 141.182 103.702 141.626 104.481C142.078 105.273 142.339 106.336 142.339 107.49C142.339 108.696 141.738 110.278 141.184 111.496C140.901 112.119 140.618 112.672 140.406 113.069C140.3 113.267 140.212 113.428 140.149 113.538C140.118 113.594 140.094 113.637 140.077 113.667L140.057 113.701L140.052 113.71L140.05 113.712L140.05 113.713C140.05 113.713 140.05 113.713 139.623 113.464C139.197 113.713 139.197 113.713 139.197 113.713L139.195 113.71L139.19 113.701L139.17 113.667C139.153 113.637 139.129 113.594 139.098 113.538C139.035 113.428 138.947 113.267 138.841 113.069C138.629 112.672 138.346 112.119 138.063 111.496C137.509 110.278 136.908 108.696 136.908 107.49C136.908 107.218 137.129 106.997 137.402 106.997C137.674 106.997 137.896 107.218 137.896 107.49C137.896 108.458 138.405 109.862 138.962 111.088C139.197 111.604 139.432 112.072 139.623 112.437C139.815 112.072 140.05 111.604 140.285 111.088C140.842 109.862 141.351 108.458 141.351 107.49C141.351 106.473 141.119 105.586 140.768 104.97C140.41 104.342 139.989 104.084 139.623 104.084C139.351 104.084 139.13 103.863 139.13 103.59ZM139.623 113.464L139.197 113.713C139.286 113.865 139.448 113.958 139.623 113.958C139.799 113.958 139.961 113.864 140.05 113.713L139.623 113.464Z" fill="#768895"/>
<path fill-rule="evenodd" clip-rule="evenodd" d="M137.165 102.442C136.441 103.725 135.97 105.546 135.97 107.589C135.97 108.553 136.22 109.754 136.623 111.048C137.023 112.332 137.56 113.662 138.102 114.871C138.644 116.078 139.186 117.155 139.593 117.93C139.603 117.95 139.613 117.969 139.623 117.989C139.634 117.969 139.644 117.95 139.654 117.93C140.061 117.155 140.603 116.078 141.145 114.871C141.687 113.662 142.224 112.332 142.624 111.048C143.027 109.754 143.277 108.553 143.277 107.589C143.277 105.546 142.806 103.725 142.082 102.442C141.346 101.134 140.446 100.529 139.623 100.529C138.801 100.529 137.901 101.134 137.165 102.442ZM139.623 119.537C138.981 119.906 138.981 119.906 138.981 119.905L138.977 119.899L138.967 119.881C138.958 119.866 138.946 119.843 138.929 119.814C138.896 119.755 138.848 119.668 138.786 119.558C138.664 119.336 138.49 119.016 138.281 118.618C137.864 117.824 137.308 116.719 136.751 115.477C136.194 114.236 135.633 112.848 135.209 111.488C134.788 110.139 134.489 108.773 134.489 107.589C134.489 105.337 135.005 103.257 135.874 101.715C136.729 100.196 138.027 99.048 139.623 99.048C141.22 99.048 142.517 100.196 143.373 101.715C144.242 103.257 144.758 105.337 144.758 107.589C144.758 108.773 144.459 110.139 144.038 111.488C143.614 112.848 143.053 114.236 142.496 115.477C141.939 116.719 141.383 117.824 140.966 118.618C140.757 119.016 140.583 119.336 140.461 119.558C140.399 119.668 140.351 119.755 140.318 119.814C140.301 119.843 140.289 119.866 140.28 119.881L140.27 119.899L140.266 119.905C140.266 119.905 140.266 119.906 139.623 119.537ZM139.623 119.537L140.266 119.906C140.134 120.136 139.889 120.278 139.623 120.278C139.358 120.278 139.113 120.135 138.981 119.905L139.623 119.537Z" fill="#768895"/>
<path d="M129.206 92.9754C129.453 93.0741 129.65 93.1235 129.65 93.1235C124.812 83.0024 124.17 76.7817 124.072 75.5968C124.862 79.0034 126.836 86.7546 129.947 93.321C129.848 93.2716 128.663 92.6791 126.886 92.6298C127.923 92.6298 128.762 92.8273 129.206 92.9754Z" fill="white"/>
<path d="M130.095 93.1234L129.749 93.469L129.502 92.8766C129.552 92.8766 129.552 92.8766 129.601 92.926C129.749 92.9753 129.897 93.0247 130.095 93.1234Z" fill="#768895"/>
<path d="M123.924 73.9181C123.825 74.1156 123.677 74.3624 123.578 74.5599C123.529 74.313 123.479 74.0662 123.43 73.8193L123.924 73.9181Z" fill="#768895"/>
<path d="M156.064 73.9182C156.163 74.0663 156.212 74.2144 156.311 74.3625C155.57 81.2251 153.102 87.3964 151.077 91.4942C150.781 92.0867 150.485 92.6298 150.238 93.1235C149.942 93.2222 149.794 93.321 149.744 93.321C149.991 92.7779 150.238 92.2348 150.485 91.6917C153.447 84.8785 155.225 77.3741 155.817 74.7575C155.965 74.1156 156.015 73.7701 156.015 73.7701C156.015 73.8688 156.064 73.8688 156.064 73.9182Z" fill="white"/>
<path d="M163.42 99.6897C163.322 96.6781 163.075 91.1979 160.458 83.7429C163.174 91.2966 163.371 96.6781 163.42 99.6897Z" fill="white"/>
<path d="M156.262 73.8687C156.212 74.1155 156.163 74.3624 156.113 74.6092C156.015 74.4117 155.867 74.1649 155.768 73.9674L156.262 73.8687Z" fill="#768895"/>
<path d="M149.597 93.1235C149.794 93.0248 149.942 92.9754 150.14 92.8766C150.189 92.8766 150.189 92.8766 150.238 92.8273L149.992 93.4197L149.597 93.1235Z" fill="#768895"/>
<path d="M124.072 75.3991C124.072 75.3991 124.269 81.8667 129.651 93.074C129.651 93.074 129.502 93.0246 129.206 92.9259C127.281 89.1737 124.664 83.1504 123.677 76.1891C123.825 75.9422 123.924 75.6954 124.072 75.3991Z" fill="white"/>
<path d="M129.947 93.1728C129.947 93.1728 127.923 92.6297 126.886 92.6297C124.565 92.5309 121.208 93.3209 118.147 97.4187C117.505 98.258 116.864 99.2948 116.271 100.43C116.37 96.6781 116.469 86.952 123.924 73.3256C123.924 73.3256 125.355 82.953 129.947 93.1728Z" fill="url(#paint1_linear_410_3888)"/>
<path d="M156.212 70.8571C155.768 86.3102 147.967 96.8756 147.967 96.8756L131.527 96.9744C131.527 96.9744 122.837 79.1021 123.529 66.0681C123.973 57.7244 128.91 49.1338 139.525 42.0244C139.623 42.0738 141.105 43.0612 141.697 43.5055C154.139 52.6886 156.508 61.7235 156.212 70.8571Z" fill="url(#paint2_linear_410_3888)"/>
<path d="M154.486 59.9469C154.813 59.9465 155.078 59.6809 155.078 59.3537C155.077 59.0265 154.812 58.7616 154.485 58.762C154.157 58.7623 153.892 59.0279 153.893 59.3551C153.893 59.6823 154.159 59.9472 154.486 59.9469Z" fill="#768895"/>
<path d="M163.47 100.43C158.483 90.9016 152.016 92.4815 150.238 93.1233C150.485 92.6296 150.781 92.0865 151.078 91.4941C153.151 87.3469 155.472 80.7806 156.064 73.5724C157.891 76.9296 159.471 80.8299 160.458 83.6441C160.458 83.6934 160.458 83.6934 160.507 83.7428C163.124 91.1978 163.371 96.678 163.47 99.6897C163.42 99.9365 163.47 100.183 163.47 100.43Z" fill="url(#paint3_linear_410_3888)"/>
<path d="M129.947 93.1728C129.947 93.1728 127.923 92.6297 126.886 92.6297C124.565 92.5309 121.208 93.3209 118.147 97.4187C117.505 98.258 116.864 99.2948 116.271 100.43C116.37 96.6781 116.469 86.952 123.924 73.3256C123.924 73.3256 125.355 82.953 129.947 93.1728Z" fill="url(#paint4_linear_410_3888)"/>
<path d="M156.212 70.8571C155.768 86.3102 147.967 96.8756 147.967 96.8756L131.527 96.9744C131.527 96.9744 122.837 79.1021 123.529 66.0681C123.973 57.7244 128.91 49.1338 139.525 42.0244C139.623 42.0738 141.105 43.0612 141.697 43.5055C154.139 52.6886 156.508 61.7235 156.212 70.8571Z" fill="url(#paint5_linear_410_3888)"/>
<path d="M129.799 93.864C129.107 93.7159 128.416 93.6171 127.774 93.5184C127.429 93.469 127.133 93.469 126.836 93.469C126.491 93.469 126.195 93.469 125.849 93.5184C124.565 93.6665 123.331 94.1108 122.245 94.802C121.159 95.4932 120.171 96.4313 119.332 97.4681C118.493 98.5049 117.703 99.6404 117.061 100.875C116.814 101.27 116.32 101.418 115.876 101.22C115.58 101.072 115.432 100.727 115.432 100.43C115.53 98.0605 115.728 95.6414 116.073 93.2222C116.419 90.8524 116.913 88.4826 117.555 86.1621C118.196 83.8417 119.036 81.5706 119.974 79.3489C120.221 78.8058 120.468 78.2627 120.714 77.7197L121.554 76.1398C121.801 75.5967 122.097 75.0536 122.442 74.5599C122.739 74.0662 123.035 73.5231 123.38 73.0294C123.578 72.6838 124.022 72.5851 124.368 72.7826C124.664 72.9801 124.763 73.375 124.615 73.6712C123.677 75.8436 122.64 77.9665 121.801 80.1388C121.554 80.6819 121.356 81.225 121.159 81.7681C120.961 82.3112 120.714 82.8543 120.517 83.3973C120.122 84.4835 119.727 85.619 119.381 86.7052C118.69 88.9269 118.098 91.198 117.703 93.5184C117.308 95.8388 117.209 98.1593 117.209 100.529L115.58 100.085C116.222 98.8011 117.012 97.4681 117.95 96.3325C118.888 95.1476 120.023 94.1108 121.356 93.3209C122.689 92.531 124.22 91.9879 125.75 91.8892C126.145 91.8398 126.54 91.8398 126.886 91.8892C127.281 91.8892 127.676 91.9385 128.071 92.0373C128.811 92.1854 129.502 92.3335 130.243 92.5803C130.638 92.6791 130.835 93.0741 130.737 93.469C130.49 93.7159 130.144 93.9134 129.799 93.864Z" fill="#768895"/>
<path d="M156.706 73.2764C157.891 75.3499 158.928 77.4729 159.866 79.6452C160.31 80.7314 160.754 81.8175 161.199 82.9531C161.594 84.0886 161.939 85.2241 162.285 86.3597C162.581 87.4952 162.877 88.6801 163.124 89.8157C163.371 91.0006 163.568 92.1361 163.717 93.321C163.865 94.5059 164.013 95.6908 164.112 96.8757C164.21 98.0606 164.26 99.2455 164.309 100.43C164.309 100.924 163.963 101.319 163.47 101.319C163.124 101.319 162.877 101.171 162.68 100.924L162.63 100.825C162.285 100.282 161.939 99.6899 161.594 99.0974L161.001 98.3075L160.705 97.9125L160.359 97.5669L159.718 96.8263L159.026 96.1351C158.829 95.8883 158.533 95.7402 158.286 95.5427L157.891 95.2465C157.743 95.1477 157.644 95.0984 157.496 94.9996C156.459 94.3084 155.274 93.8147 154.04 93.6172C152.806 93.4197 151.522 93.4691 150.288 93.8147C149.893 93.9134 149.547 93.716 149.448 93.321C149.35 92.9754 149.547 92.6298 149.843 92.4817C151.226 91.8892 152.756 91.6424 154.287 91.7905C155.817 91.9386 157.298 92.4817 158.533 93.321C158.681 93.4197 158.878 93.5185 159.026 93.6172L159.471 93.9628C159.767 94.2097 160.063 94.4072 160.31 94.7034L161.1 95.4933L161.791 96.3326L162.137 96.777L162.433 97.2213L163.025 98.11C163.42 98.7518 163.717 99.3936 164.062 99.9861L162.433 100.43C162.433 99.2455 162.433 98.11 162.334 96.9745C162.285 95.8389 162.137 94.654 161.989 93.5185C161.643 91.2474 161.051 88.9763 160.409 86.804C160.063 85.7179 159.718 84.5823 159.323 83.5455C158.928 82.4594 158.533 81.3732 158.088 80.287C157.249 78.1147 156.311 75.9918 155.323 73.9182C155.175 73.5726 155.323 73.1282 155.669 72.9801C156.113 72.832 156.508 72.9308 156.706 73.2764Z" fill="#768895"/>
<path d="M144.412 97.0236L142.536 100.776H136.809L134.785 97.1223L144.412 97.0236Z" fill="white"/>
<path fill-rule="evenodd" clip-rule="evenodd" d="M134.37 96.3304C134.726 96.1285 135.178 96.2532 135.38 96.6089L137.241 99.8874H138.093C138.502 99.8874 138.834 100.219 138.834 100.628C138.834 101.037 138.502 101.369 138.093 101.369H136.809C136.543 101.369 136.297 101.225 136.165 100.993L134.092 97.34C133.89 96.9843 134.015 96.5323 134.37 96.3304Z" fill="#768895"/>
<path fill-rule="evenodd" clip-rule="evenodd" d="M144.754 96.3667C145.117 96.5556 145.258 97.0028 145.069 97.3656L143.193 100.97C143.066 101.215 142.813 101.368 142.536 101.368H140.66C140.251 101.368 139.92 101.037 139.92 100.628C139.92 100.219 140.251 99.8871 140.66 99.8871H142.087L143.756 96.6817C143.944 96.3189 144.392 96.1779 144.754 96.3667Z" fill="#768895"/>
<path d="M136.957 100.578L136.908 100.48H136.76L136.957 100.578Z" fill="#768895"/>
<path d="M134.785 97.2704H135.131L134.982 97.0236L134.785 97.2704Z" fill="#768895"/>
<path d="M142.536 100.43C142.487 100.43 142.438 100.43 142.438 100.43C142.438 100.48 142.388 100.48 142.388 100.529L142.536 100.43Z" fill="#768895"/>
<path opacity="0.3" d="M142.004 77.6711C146.557 77.6659 150.244 73.9703 150.239 69.4167C150.234 64.8632 146.538 61.176 141.985 61.1812C137.431 61.1863 133.744 64.8819 133.749 69.4355C133.754 73.9891 137.45 77.6763 142.004 77.6711Z" fill="#A9BBC8"/>
<path d="M139.683 76.5357C144.237 76.5305 147.924 72.8349 147.919 68.2813C147.914 63.7278 144.218 60.0406 139.665 60.0458C135.111 60.051 131.424 63.7466 131.429 68.3001C131.434 72.8537 135.13 76.5409 139.683 76.5357Z" fill="white"/>
<path d="M136.069 74.4117C138.883 75.9916 142.635 75.3991 144.758 73.128C145.301 72.585 145.745 71.9431 146.091 71.2026C146.437 70.5114 146.684 69.7708 146.782 68.9809C146.98 67.401 146.684 65.7718 145.795 64.4387C144.956 63.1057 143.623 62.0689 142.141 61.5752C141.401 61.3284 140.611 61.2296 139.821 61.2296C139.031 61.279 138.29 61.3777 137.55 61.6246C136.069 62.1183 134.834 63.1057 133.946 64.3894C133.057 65.673 132.613 67.2529 132.613 68.8328V68.8821C132.613 69.2771 132.317 69.5733 131.922 69.5733C131.576 69.5733 131.28 69.3265 131.23 68.9809C130.934 67.1048 131.329 65.0312 132.415 63.3526C133.452 61.674 135.081 60.3409 137.007 59.7485C138.883 59.1067 140.956 59.2054 142.783 59.8966C144.61 60.5878 146.19 61.9208 147.227 63.5501C147.77 64.34 148.115 65.278 148.362 66.2161C148.609 67.1541 148.658 68.1416 148.609 69.129C148.51 70.1164 148.263 71.0544 147.868 71.9431C147.473 72.8318 146.881 73.6711 146.19 74.3623C144.807 75.7447 142.931 76.6827 141.006 76.8802C139.08 77.1271 137.056 76.6334 135.476 75.5472C135.131 75.3497 135.081 74.9054 135.279 74.5598C135.328 74.3623 135.723 74.2636 136.069 74.4117Z" fill="#768895"/>
<path opacity="0.3" d="M141.109 86.2617C142.718 86.2599 144.02 84.9543 144.018 83.3455C144.017 81.7368 142.711 80.4341 141.102 80.436C139.493 80.4378 138.191 81.7434 138.193 83.3522C138.194 84.9609 139.5 86.2636 141.109 86.2617Z" fill="#A9BBC8"/>
<path d="M139.776 85.2249C141.275 85.2232 142.49 84.0061 142.488 82.5064C142.486 81.0067 141.269 79.7924 139.77 79.7941C138.27 79.7958 137.056 81.0129 137.057 82.5126C137.059 84.0123 138.276 85.2266 139.776 85.2249Z" fill="white"/>
<path fill-rule="evenodd" clip-rule="evenodd" d="M142.537 84.3848C142.981 83.5949 143.08 82.7062 142.932 81.8669C142.783 81.0276 142.339 80.2376 141.549 79.6945C140.858 79.1515 139.92 78.9046 139.031 79.1021C138.143 79.2502 137.303 79.8427 136.859 80.5832C136.415 81.3238 136.266 82.2618 136.415 83.1011C136.563 83.9405 137.106 84.7304 137.797 85.2735C138.537 85.7672 139.476 86.014 140.364 85.8659C141.253 85.7178 142.092 85.1747 142.537 84.3848ZM140.907 80.7313C141.401 80.9782 141.796 81.4719 141.895 82.0644C142.043 82.6568 141.796 83.2493 141.401 83.6936C141.055 84.0886 140.562 84.3848 140.068 84.4835C139.574 84.5823 139.031 84.5329 138.537 84.2367C138.044 83.9405 137.698 83.4467 137.599 82.9037C137.501 82.3606 137.649 81.7681 137.994 81.3238C138.291 80.8795 138.784 80.5832 139.327 80.4845C139.871 80.3857 140.414 80.4351 140.907 80.7313Z" fill="#768895"/>
<path d="M138.078 105.899C138.271 105.707 138.271 105.394 138.078 105.201C137.885 105.008 137.573 105.008 137.38 105.201C137.187 105.394 137.187 105.707 137.38 105.899C137.573 106.092 137.885 106.092 138.078 105.899Z" fill="#768895"/>
<path fill-rule="evenodd" clip-rule="evenodd" d="M138.932 54.954C138.935 54.545 139.269 54.216 139.678 54.2191L152.663 54.3178C153.072 54.321 153.401 54.655 153.398 55.064C153.395 55.473 153.061 55.802 152.652 55.7989L139.667 55.7002C139.258 55.6971 138.929 55.363 138.932 54.954Z" fill="#768895"/>
<path fill-rule="evenodd" clip-rule="evenodd" d="M131.23 54.8501C131.236 54.4411 131.573 54.1144 131.982 54.1203L135.388 54.1697C135.797 54.1756 136.124 54.512 136.118 54.9209C136.112 55.3299 135.776 55.6566 135.367 55.6507L131.96 55.6013C131.551 55.5954 131.225 55.2591 131.23 54.8501Z" fill="#768895"/>
<path d="M133.452 45.6285C135.18 43.9993 137.056 42.5675 138.982 41.1851C139.327 40.9383 139.772 40.9383 140.068 41.1851C141.154 41.9257 142.289 42.6663 143.326 43.4562C143.869 43.8512 144.412 44.2461 144.906 44.6905L146.437 45.9741C148.411 47.7515 150.288 49.7263 151.867 51.8987C153.447 54.071 154.78 56.4902 155.718 59.0574C156.656 61.6247 157.101 64.3401 157.298 67.0062C157.496 69.7216 157.348 72.3876 157.002 75.0043C156.854 76.3373 156.607 77.6209 156.36 78.954C156.064 80.2376 155.768 81.5706 155.422 82.8543C154.682 85.4216 153.793 87.9395 152.707 90.3587C152.164 91.5929 151.571 92.7779 150.929 93.9134C150.288 95.0983 149.596 96.2338 148.806 97.3694C148.609 97.6162 148.362 97.7643 148.066 97.7643H148.017L139.772 97.8631L131.527 98.0112C131.082 98.0112 130.687 97.7643 130.539 97.4187C129.65 95.592 128.861 93.7653 128.12 91.8892C127.379 90.0131 126.639 88.137 125.997 86.2609C124.713 82.4593 123.627 78.559 122.985 74.5599C122.887 74.0662 122.837 73.5725 122.788 73.0294L122.59 71.4989C122.492 70.4622 122.442 69.4747 122.393 68.4379V66.9074C122.393 66.4137 122.393 65.8706 122.442 65.3769C122.541 64.3401 122.689 63.3034 122.936 62.3159C123.825 58.2675 125.75 54.4659 128.268 51.3062C128.564 50.9112 129.107 50.8619 129.502 51.1581C129.848 51.4543 129.947 51.948 129.7 52.343C127.478 55.5027 125.849 59.0574 125.158 62.7603C124.467 66.4631 124.763 70.3634 125.405 74.165C126.096 77.9666 127.083 81.7681 128.317 85.4709C129.552 89.1738 130.984 92.8766 132.563 96.4313L131.576 95.7895H139.821H148.066L147.276 96.1845C147.967 95.197 148.658 94.0615 149.251 92.9753C149.893 91.8398 150.436 90.7043 150.929 89.5194C151.966 87.1989 152.805 84.7797 153.497 82.2618C153.842 81.0276 154.089 79.7933 154.336 78.5096C154.533 77.226 154.78 75.9917 154.879 74.7081C155.126 72.1901 155.274 69.6228 155.077 67.1049C154.928 64.587 154.435 62.1185 153.595 59.7486C152.756 57.3788 151.571 55.1571 150.139 53.1329C148.658 51.1087 146.93 49.2326 145.054 47.5046C143.178 45.7766 141.154 44.1968 139.031 42.765H140.117C138.192 43.9993 136.365 45.3817 134.637 46.8628C134.291 47.159 133.699 47.159 133.403 46.7641C133.057 46.5172 133.106 45.9741 133.452 45.6285Z" fill="#768895"/>
</g>
<defs>
<linearGradient id="paint0_linear_410_3888" x1="-59.1903" y1="14.7188" x2="88.4242" y2="304.555" gradientUnits="userSpaceOnUse">
<stop stop-color="#6EC0E6"/>
<stop offset="1" stop-color="#B7E0C8"/>
</linearGradient>
<linearGradient id="paint1_linear_410_3888" x1="-1.6593" y1="211.421" x2="213.12" y2="255.015" gradientUnits="userSpaceOnUse">
<stop stop-color="#6EC0E6"/>
<stop offset="0.9985" stop-color="#B7E0C8"/>
</linearGradient>
<linearGradient id="paint2_linear_410_3888" x1="5.87406" y1="163.931" x2="224.294" y2="225.776" gradientUnits="userSpaceOnUse">
<stop stop-color="#6EC0E6"/>
<stop offset="0.9985" stop-color="#B7E0C8"/>
</linearGradient>
<linearGradient id="paint3_linear_410_3888" x1="146.067" y1="58.3038" x2="184.286" y2="64.7727" gradientUnits="userSpaceOnUse">
<stop stop-color="#6EC0E6"/>
<stop offset="0.9971" stop-color="#B7E0C8"/>
</linearGradient>
<linearGradient id="paint4_linear_410_3888" x1="111.959" y1="57.9167" x2="151.409" y2="64.7551" gradientUnits="userSpaceOnUse">
<stop stop-color="#6EC0E6"/>
<stop offset="0.9971" stop-color="#B7E0C8"/>
</linearGradient>
<linearGradient id="paint5_linear_410_3888" x1="113.165" y1="10.7856" x2="206.55" y2="29.9051" gradientUnits="userSpaceOnUse">
<stop stop-color="#6EC0E6"/>
<stop offset="0.9971" stop-color="#B7E0C8"/>
</linearGradient>
<clipPath id="clip0_410_3888">
<rect width="176.056" height="100" fill="white" transform="translate(22 41)"/>
</clipPath>
<clipPath id="clip1_410_3888">
<rect width="159.054" height="74.8484" fill="white" transform="translate(31.1549 51.5634)"/>
</clipPath>
</defs>
</svg>
